<svg xmlns="http://www.w3.org/2000/svg" xmlns:xlink="http://www.w3.org/1999/xlink" width="1919.737" height="1228.321" viewBox="0 0 1919.737 1228.321"><defs><clipPath id="a"><rect width="1919.737" height="1228.321" fill="none"/></clipPath></defs><g clip-path="url(#a)"><g transform="translate(400.222 -622.646)"><g transform="translate(722.875 469.752)"><g transform="translate(0 312.266)"><g transform="translate(0 312.649)"><g transform="translate(270.893 156.325)"><path d="M1393.122,784.638v-104.2l90.3-52.1,90.3,52.1v104.2l-90.3,52.1Z" transform="translate(-1393.122 -628.345)" fill="none" stroke="#fff" stroke-miterlimit="10" stroke-width="1"/><path d="M1483.3,732.114l90.32-51.7-32.515,51.7,32.515,52.526Z" transform="translate(-1393.06 -628.345)" fill="none" stroke="#fff" stroke-linejoin="round" stroke-width="1"/><path d="M1483.364,732.114l-90.242,52.524,32.437-52.524L1393.2,680.471Z" transform="translate(-1393.122 -628.345)" fill="none" stroke="#fff" stroke-linejoin="round" stroke-width="1"/><line x2="115.61" transform="translate(32.437 103.769)" fill="none" stroke="#fff" stroke-linejoin="round" stroke-width="1"/><line y2="208.301" transform="translate(90.242 0.011)" fill="none" stroke="#fff" stroke-linejoin="round" stroke-width="1"/><path d="M1483.358,628.345l28.466,53.983,61.777-1.9" transform="translate(-1393.06 -628.345)" fill="none" stroke="#fff" stroke-linejoin="round" stroke-width="1"/><path d="M1393.122,784.638l60.989-2.24,29.309,54.338" transform="translate(-1393.122 -628.345)" fill="none" stroke="#fff" stroke-linejoin="round" stroke-width="1"/><line x1="57.775" y2="100.07" transform="translate(60.989 53.983)" fill="none" stroke="#fff" stroke-linejoin="round" stroke-width="1"/><path d="M1483.365,628.345,1454.9,682.328l-61.777-1.9" transform="translate(-1393.122 -628.345)" fill="none" stroke="#fff" stroke-linejoin="round" stroke-width="1"/><path d="M1573.6,784.638l-60.989-2.24L1483.3,836.736" transform="translate(-1393.06 -628.345)" fill="none" stroke="#fff" stroke-linejoin="round" stroke-width="1"/><line x2="57.775" y2="100.07" transform="translate(61.777 53.983)" fill="none" stroke="#fff" stroke-linejoin="round" stroke-width="1"/></g><g transform="translate(90.298 156.325)"><path d="M1212.65,784.638v-104.2l90.3-52.1,90.3,52.1v104.2l-90.3,52.1Z" transform="translate(-1212.65 -628.345)" fill="none" stroke="#fff" stroke-miterlimit="10" stroke-width="1"/><path d="M1302.83,732.114l90.32-51.7-32.515,51.7,32.515,52.526Z" transform="translate(-1212.588 -628.345)" fill="none" stroke="#fff" stroke-linejoin="round" stroke-width="1"/><path d="M1302.892,732.114l-90.242,52.524,32.437-52.524-32.358-51.644Z" transform="translate(-1212.65 -628.345)" fill="none" stroke="#fff" stroke-linejoin="round" stroke-width="1"/><line x2="115.61" transform="translate(32.437 103.769)" fill="none" stroke="#fff" stroke-linejoin="round" stroke-width="1"/><line y2="208.301" transform="translate(90.242 0.011)" fill="none" stroke="#fff" stroke-linejoin="round" stroke-width="1"/><path d="M1302.886,628.345l28.466,53.983,61.777-1.9" transform="translate(-1212.588 -628.345)" fill="none" stroke="#fff" stroke-linejoin="round" stroke-width="1"/><path d="M1212.65,784.638l60.989-2.24,29.309,54.338" transform="translate(-1212.65 -628.345)" fill="none" stroke="#fff" stroke-linejoin="round" stroke-width="1"/><line x1="57.775" y2="100.07" transform="translate(60.989 53.983)" fill="none" stroke="#fff" stroke-linejoin="round" stroke-width="1"/><path d="M1302.893,628.345l-28.466,53.983-61.777-1.9" transform="translate(-1212.65 -628.345)" fill="none" stroke="#fff" stroke-linejoin="round" stroke-width="1"/><path d="M1393.129,784.638l-60.989-2.24-29.309,54.338" transform="translate(-1212.588 -628.345)" fill="none" stroke="#fff" stroke-linejoin="round" stroke-width="1"/><line x2="57.775" y2="100.07" transform="translate(61.777 53.983)" fill="none" stroke="#fff" stroke-linejoin="round" stroke-width="1"/></g><g transform="translate(180.596)"><path d="M1302.886,628.314v-104.2l90.3-52.1,90.3,52.1v104.2l-90.3,52.1Z" transform="translate(-1302.886 -472.021)" fill="none" stroke="#fff" stroke-miterlimit="10" stroke-width="1"/><path d="M1393.066,575.79l90.321-51.7-32.515,51.7,32.515,52.526Z" transform="translate(-1302.824 -472.021)" fill="none" stroke="#fff" stroke-linejoin="round" stroke-width="1"/><path d="M1393.128,575.79l-90.242,52.524,32.437-52.524-32.358-51.644Z" transform="translate(-1302.886 -472.021)" fill="none" stroke="#fff" stroke-linejoin="round" stroke-width="1"/><line x2="115.61" transform="translate(32.437 103.769)" fill="none" stroke="#fff" stroke-linejoin="round" stroke-width="1"/><line y2="208.301" transform="translate(90.242 0.011)" fill="none" stroke="#fff" stroke-linejoin="round" stroke-width="1"/><path d="M1393.122,472.021,1421.588,526l61.777-1.9" transform="translate(-1302.824 -472.021)" fill="none" stroke="#fff" stroke-linejoin="round" stroke-width="1"/><path d="M1302.886,628.314l60.989-2.24,29.309,54.338" transform="translate(-1302.886 -472.021)" fill="none" stroke="#fff" stroke-linejoin="round" stroke-width="1"/><line x1="57.775" y2="100.07" transform="translate(60.989 53.983)" fill="none" stroke="#fff" stroke-linejoin="round" stroke-width="1"/><path d="M1393.129,472.021,1364.663,526l-61.777-1.9" transform="translate(-1302.886 -472.021)" fill="none" stroke="#fff" stroke-linejoin="round" stroke-width="1"/><path d="M1483.365,628.314l-60.989-2.24-29.309,54.338" transform="translate(-1302.824 -472.021)" fill="none" stroke="#fff" stroke-linejoin="round" stroke-width="1"/><line x2="57.775" y2="100.07" transform="translate(61.777 53.983)" fill="none" stroke="#fff" stroke-linejoin="round" stroke-width="1"/></g><path d="M1122.414,628.314v-104.2l90.3-52.1,90.3,52.1v104.2l-90.3,52.1Z" transform="translate(-1122.414 -472.021)" fill="none" stroke="#fff" stroke-miterlimit="10" stroke-width="1"/><path d="M1212.594,575.79l90.321-51.7-32.515,51.7,32.515,52.526Z" transform="translate(-1122.352 -472.021)" fill="none" stroke="#fff" stroke-linejoin="round" stroke-width="1"/><path d="M1212.656,575.79l-90.242,52.524,32.437-52.524-32.358-51.644Z" transform="translate(-1122.414 -472.021)" fill="none" stroke="#fff" stroke-linejoin="round" stroke-width="1"/><line x2="115.61" transform="translate(32.437 103.769)" fill="none" stroke="#fff" stroke-linejoin="round" stroke-width="1"/><line y2="208.301" transform="translate(90.242 0.011)" fill="none" stroke="#fff" stroke-linejoin="round" stroke-width="1"/><path d="M1212.65,472.021,1241.116,526l61.777-1.9" transform="translate(-1122.352 -472.021)" fill="none" stroke="#fff" stroke-linejoin="round" stroke-width="1"/><path d="M1122.414,628.314l60.989-2.24,29.309,54.338" transform="translate(-1122.414 -472.021)" fill="none" stroke="#fff" stroke-linejoin="round" stroke-width="1"/><line x1="57.775" y2="100.07" transform="translate(60.989 53.983)" fill="none" stroke="#fff" stroke-linejoin="round" stroke-width="1"/><path d="M1212.657,472.021,1184.191,526l-61.777-1.9" transform="translate(-1122.414 -472.021)" fill="none" stroke="#fff" stroke-linejoin="round" stroke-width="1"/><path d="M1302.893,628.314l-60.989-2.24L1212.6,680.411" transform="translate(-1122.352 -472.021)" fill="none" stroke="#fff" stroke-linejoin="round" stroke-width="1"/><line x2="57.775" y2="100.07" transform="translate(61.777 53.983)" fill="none" stroke="#fff" stroke-linejoin="round" stroke-width="1"/></g><g transform="translate(270.893 156.325)"><path d="M1393.122,471.989v-104.2l90.3-52.1,90.3,52.1v104.2l-90.3,52.1Z" transform="translate(-1393.122 -315.696)" fill="none" stroke="#fff" stroke-miterlimit="10" stroke-width="1"/><path d="M1483.3,419.465l90.32-51.7-32.515,51.7,32.515,52.526Z" transform="translate(-1393.06 -315.696)" fill="none" stroke="#fff" stroke-linejoin="round" stroke-width="1"/><path d="M1483.364,419.465l-90.242,52.524,32.437-52.524L1393.2,367.822Z" transform="translate(-1393.122 -315.696)" fill="none" stroke="#fff" stroke-linejoin="round" stroke-width="1"/><line x2="115.61" transform="translate(32.437 103.769)" fill="none" stroke="#fff" stroke-linejoin="round" stroke-width="1"/><line y2="208.301" transform="translate(90.242 0.011)" fill="none" stroke="#fff" stroke-linejoin="round" stroke-width="1"/><path d="M1483.358,315.7l28.466,53.983,61.777-1.9" transform="translate(-1393.06 -315.696)" fill="none" stroke="#fff" stroke-linejoin="round" stroke-width="1"/><path d="M1393.122,471.989l60.989-2.24,29.309,54.338" transform="translate(-1393.122 -315.696)" fill="none" stroke="#fff" stroke-linejoin="round" stroke-width="1"/><line x1="57.775" y2="100.07" transform="translate(60.989 53.983)" fill="none" stroke="#fff" stroke-linejoin="round" stroke-width="1"/><path d="M1483.365,315.7,1454.9,369.679l-61.777-1.9" transform="translate(-1393.122 -315.696)" fill="none" stroke="#fff" stroke-linejoin="round" stroke-width="1"/><path d="M1573.6,471.989l-60.989-2.24L1483.3,524.087" transform="translate(-1393.06 -315.696)" fill="none" stroke="#fff" stroke-linejoin="round" stroke-width="1"/><line x2="57.775" y2="100.07" transform="translate(61.777 53.983)" fill="none" stroke="#fff" stroke-linejoin="round" stroke-width="1"/></g><g transform="translate(90.298 156.325)"><path d="M1212.65,471.989v-104.2l90.3-52.1,90.3,52.1v104.2l-90.3,52.1Z" transform="translate(-1212.65 -315.696)" fill="none" stroke="#fff" stroke-miterlimit="10" stroke-width="1"/><path d="M1302.83,419.465l90.32-51.7-32.515,51.7,32.515,52.526Z" transform="translate(-1212.588 -315.696)" fill="none" stroke="#fff" stroke-linejoin="round" stroke-width="1"/><path d="M1302.892,419.465l-90.242,52.524,32.437-52.524-32.358-51.644Z" transform="translate(-1212.65 -315.696)" fill="none" stroke="#fff" stroke-linejoin="round" stroke-width="1"/><line x2="115.61" transform="translate(32.437 103.769)" fill="none" stroke="#fff" stroke-linejoin="round" stroke-width="1"/><line y2="208.301" transform="translate(90.242 0.011)" fill="none" stroke="#fff" stroke-linejoin="round" stroke-width="1"/><path d="M1302.886,315.7l28.466,53.983,61.777-1.9" transform="translate(-1212.588 -315.696)" fill="none" stroke="#fff" stroke-linejoin="round" stroke-width="1"/><path d="M1212.65,471.989l60.989-2.24,29.309,54.338" transform="translate(-1212.65 -315.696)" fill="none" stroke="#fff" stroke-linejoin="round" stroke-width="1"/><line x1="57.775" y2="100.07" transform="translate(60.989 53.983)" fill="none" stroke="#fff" stroke-linejoin="round" stroke-width="1"/><path d="M1302.893,315.7l-28.466,53.983-61.777-1.9" transform="translate(-1212.65 -315.696)" fill="none" stroke="#fff" stroke-linejoin="round" stroke-width="1"/><path d="M1393.129,471.989l-60.989-2.24-29.309,54.338" transform="translate(-1212.588 -315.696)" fill="none" stroke="#fff" stroke-linejoin="round" stroke-width="1"/><line x2="57.775" y2="100.07" transform="translate(61.777 53.983)" fill="none" stroke="#fff" stroke-linejoin="round" stroke-width="1"/></g><g transform="translate(180.596)"><path d="M1302.886,315.664v-104.2l90.3-52.1,90.3,52.1v104.2l-90.3,52.1Z" transform="translate(-1302.886 -159.371)" fill="none" stroke="#fff" stroke-miterlimit="10" stroke-width="1"/><path d="M1393.066,263.141l90.321-51.7-32.515,51.7,32.515,52.526Z" transform="translate(-1302.824 -159.371)" fill="none" stroke="#fff" stroke-linejoin="round" stroke-width="1"/><path d="M1393.128,263.141l-90.242,52.524,32.437-52.524L1302.964,211.5Z" transform="translate(-1302.886 -159.371)" fill="none" stroke="#fff" stroke-linejoin="round" stroke-width="1"/><line x2="115.61" transform="translate(32.437 103.769)" fill="none" stroke="#fff" stroke-linejoin="round" stroke-width="1"/><line y2="208.301" transform="translate(90.242 0.011)" fill="none" stroke="#fff" stroke-linejoin="round" stroke-width="1"/><path d="M1393.122,159.371l28.466,53.983,61.777-1.9" transform="translate(-1302.824 -159.371)" fill="none" stroke="#fff" stroke-linejoin="round" stroke-width="1"/><path d="M1302.886,315.664l60.989-2.24,29.309,54.338" transform="translate(-1302.886 -159.371)" fill="none" stroke="#fff" stroke-linejoin="round" stroke-width="1"/><line x1="57.775" y2="100.07" transform="translate(60.989 53.983)" fill="none" stroke="#fff" stroke-linejoin="round" stroke-width="1"/><path d="M1393.129,159.371l-28.466,53.983-61.777-1.9" transform="translate(-1302.886 -159.371)" fill="none" stroke="#fff" stroke-linejoin="round" stroke-width="1"/><path d="M1483.365,315.664l-60.989-2.24-29.309,54.338" transform="translate(-1302.824 -159.371)" fill="none" stroke="#fff" stroke-linejoin="round" stroke-width="1"/><line x2="57.775" y2="100.07" transform="translate(61.777 53.983)" fill="none" stroke="#fff" stroke-linejoin="round" stroke-width="1"/></g><path d="M1122.414,315.664v-104.2l90.3-52.1,90.3,52.1v104.2l-90.3,52.1Z" transform="translate(-1122.414 -159.371)" fill="none" stroke="#fff" stroke-miterlimit="10" stroke-width="1"/><path d="M1212.594,263.141l90.321-51.7-32.515,51.7,32.515,52.526Z" transform="translate(-1122.352 -159.371)" fill="none" stroke="#fff" stroke-linejoin="round" stroke-width="1"/><path d="M1212.656,263.141l-90.242,52.524,32.437-52.524L1122.493,211.5Z" transform="translate(-1122.414 -159.371)" fill="none" stroke="#fff" stroke-linejoin="round" stroke-width="1"/><line x2="115.61" transform="translate(32.437 103.769)" fill="none" stroke="#fff" stroke-linejoin="round" stroke-width="1"/><line y2="208.301" transform="translate(90.242 0.011)" fill="none" stroke="#fff" stroke-linejoin="round" stroke-width="1"/><path d="M1212.65,159.371l28.466,53.983,61.777-1.9" transform="translate(-1122.352 -159.371)" fill="none" stroke="#fff" stroke-linejoin="round" stroke-width="1"/><path d="M1122.414,315.664l60.989-2.24,29.309,54.338" transform="translate(-1122.414 -159.371)" fill="none" stroke="#fff" stroke-linejoin="round" stroke-width="1"/><line x1="57.775" y2="100.07" transform="translate(60.989 53.983)" fill="none" stroke="#fff" stroke-linejoin="round" stroke-width="1"/><path d="M1212.657,159.371l-28.466,53.983-61.777-1.9" transform="translate(-1122.414 -159.371)" fill="none" stroke="#fff" stroke-linejoin="round" stroke-width="1"/><path d="M1302.893,315.664l-60.989-2.24L1212.6,367.762" transform="translate(-1122.352 -159.371)" fill="none" stroke="#fff" stroke-linejoin="round" stroke-width="1"/><line x2="57.775" y2="100.07" transform="translate(61.777 53.983)" fill="none" stroke="#fff" stroke-linejoin="round" stroke-width="1"/></g><g transform="translate(361.398 312.589)"><g transform="translate(0 312.649)"><g transform="translate(270.893 156.325)"><path d="M1754.272,784.962v-104.2l90.3-52.1,90.3,52.1v104.2l-90.3,52.1Z" transform="translate(-1754.272 -628.669)" fill="none" stroke="#fff" stroke-miterlimit="10" stroke-width="1"/><path d="M1844.452,732.438l90.32-51.7-32.515,51.7,32.515,52.526Z" transform="translate(-1754.209 -628.669)" fill="none" stroke="#fff" stroke-linejoin="round" stroke-width="1"/><path d="M1844.514,732.438l-90.242,52.524,32.437-52.524-32.358-51.644Z" transform="translate(-1754.272 -628.669)" fill="none" stroke="#fff" stroke-linejoin="round" stroke-width="1"/><line x2="115.61" transform="translate(32.437 103.769)" fill="none" stroke="#fff" stroke-linejoin="round" stroke-width="1"/><line y2="208.301" transform="translate(90.242 0.011)" fill="none" stroke="#fff" stroke-linejoin="round" stroke-width="1"/><path d="M1844.507,628.669l28.466,53.983,61.777-1.9" transform="translate(-1754.21 -628.669)" fill="none" stroke="#fff" stroke-linejoin="round" stroke-width="1"/><path d="M1754.272,784.962l60.989-2.24,29.309,54.338" transform="translate(-1754.272 -628.669)" fill="none" stroke="#fff" stroke-linejoin="round" stroke-width="1"/><line x1="57.775" y2="100.07" transform="translate(60.989 53.983)" fill="none" stroke="#fff" stroke-linejoin="round" stroke-width="1"/><path d="M1844.514,628.669l-28.466,53.983-61.777-1.9" transform="translate(-1754.272 -628.669)" fill="none" stroke="#fff" stroke-linejoin="round" stroke-width="1"/><path d="M1934.75,784.962l-60.989-2.24-29.309,54.338" transform="translate(-1754.209 -628.669)" fill="none" stroke="#fff" stroke-linejoin="round" stroke-width="1"/><line x2="57.775" y2="100.07" transform="translate(61.777 53.983)" fill="none" stroke="#fff" stroke-linejoin="round" stroke-width="1"/></g><g transform="translate(90.298 156.325)"><path d="M1573.8,784.962v-104.2l90.3-52.1,90.3,52.1v104.2l-90.3,52.1Z" transform="translate(-1573.8 -628.669)" fill="none" stroke="#fff" stroke-miterlimit="10" stroke-width="1"/><path d="M1663.98,732.438l90.321-51.7-32.515,51.7,32.515,52.526Z" transform="translate(-1573.738 -628.669)" fill="none" stroke="#fff" stroke-linejoin="round" stroke-width="1"/><path d="M1664.042,732.438,1573.8,784.962l32.437-52.524-32.358-51.644Z" transform="translate(-1573.8 -628.669)" fill="none" stroke="#fff" stroke-linejoin="round" stroke-width="1"/><line x2="115.61" transform="translate(32.437 103.769)" fill="none" stroke="#fff" stroke-linejoin="round" stroke-width="1"/><line y2="208.301" transform="translate(90.242 0.011)" fill="none" stroke="#fff" stroke-linejoin="round" stroke-width="1"/><path d="M1664.036,628.669l28.466,53.983,61.777-1.9" transform="translate(-1573.738 -628.669)" fill="none" stroke="#fff" stroke-linejoin="round" stroke-width="1"/><path d="M1573.8,784.962l60.989-2.24L1664.1,837.06" transform="translate(-1573.8 -628.669)" fill="none" stroke="#fff" stroke-linejoin="round" stroke-width="1"/><line x1="57.775" y2="100.07" transform="translate(60.989 53.983)" fill="none" stroke="#fff" stroke-linejoin="round" stroke-width="1"/><path d="M1664.043,628.669l-28.466,53.983-61.777-1.9" transform="translate(-1573.8 -628.669)" fill="none" stroke="#fff" stroke-linejoin="round" stroke-width="1"/><path d="M1754.279,784.962l-60.989-2.24-29.309,54.338" transform="translate(-1573.738 -628.669)" fill="none" stroke="#fff" stroke-linejoin="round" stroke-width="1"/><line x2="57.775" y2="100.07" transform="translate(61.777 53.983)" fill="none" stroke="#fff" stroke-linejoin="round" stroke-width="1"/></g><g transform="translate(180.596)"><path d="M1664.036,628.637v-104.2l90.3-52.1,90.3,52.1v104.2l-90.3,52.1Z" transform="translate(-1664.036 -472.344)" fill="none" stroke="#fff" stroke-miterlimit="10" stroke-width="1"/><path d="M1754.216,576.114l90.32-51.7-32.515,51.7,32.515,52.526Z" transform="translate(-1663.974 -472.344)" fill="none" stroke="#fff" stroke-linejoin="round" stroke-width="1"/><path d="M1754.278,576.114l-90.242,52.524,32.437-52.524-32.358-51.644Z" transform="translate(-1664.036 -472.344)" fill="none" stroke="#fff" stroke-linejoin="round" stroke-width="1"/><line x2="115.61" transform="translate(32.437 103.769)" fill="none" stroke="#fff" stroke-linejoin="round" stroke-width="1"/><line y2="208.301" transform="translate(90.242 0.011)" fill="none" stroke="#fff" stroke-linejoin="round" stroke-width="1"/><path d="M1754.272,472.344l28.466,53.983,61.777-1.9" transform="translate(-1663.974 -472.344)" fill="none" stroke="#fff" stroke-linejoin="round" stroke-width="1"/><path d="M1664.036,628.637l60.989-2.24,29.309,54.338" transform="translate(-1664.036 -472.344)" fill="none" stroke="#fff" stroke-linejoin="round" stroke-width="1"/><line x1="57.775" y2="100.07" transform="translate(60.989 53.983)" fill="none" stroke="#fff" stroke-linejoin="round" stroke-width="1"/><path d="M1754.279,472.344l-28.466,53.983-61.777-1.9" transform="translate(-1664.036 -472.344)" fill="none" stroke="#fff" stroke-linejoin="round" stroke-width="1"/><path d="M1844.514,628.637l-60.989-2.24-29.309,54.338" transform="translate(-1663.974 -472.344)" fill="none" stroke="#fff" stroke-linejoin="round" stroke-width="1"/><line x2="57.775" y2="100.07" transform="translate(61.777 53.983)" fill="none" stroke="#fff" stroke-linejoin="round" stroke-width="1"/></g><path d="M1483.564,628.637v-104.2l90.3-52.1,90.3,52.1v104.2l-90.3,52.1Z" transform="translate(-1483.564 -472.344)" fill="none" stroke="#fff" stroke-miterlimit="10" stroke-width="1"/><path d="M1573.744,576.114l90.32-51.7-32.515,51.7,32.515,52.526Z" transform="translate(-1483.502 -472.344)" fill="none" stroke="#fff" stroke-linejoin="round" stroke-width="1"/><path d="M1573.806,576.114l-90.242,52.524L1516,576.114l-32.358-51.644Z" transform="translate(-1483.564 -472.344)" fill="none" stroke="#fff" stroke-linejoin="round" stroke-width="1"/><line x2="115.61" transform="translate(32.437 103.769)" fill="none" stroke="#fff" stroke-linejoin="round" stroke-width="1"/><line y2="208.301" transform="translate(90.242 0.011)" fill="none" stroke="#fff" stroke-linejoin="round" stroke-width="1"/><path d="M1573.8,472.344l28.466,53.983,61.777-1.9" transform="translate(-1483.502 -472.344)" fill="none" stroke="#fff" stroke-linejoin="round" stroke-width="1"/><path d="M1483.564,628.637l60.989-2.24,29.309,54.338" transform="translate(-1483.564 -472.344)" fill="none" stroke="#fff" stroke-linejoin="round" stroke-width="1"/><line x1="57.775" y2="100.07" transform="translate(60.989 53.983)" fill="none" stroke="#fff" stroke-linejoin="round" stroke-width="1"/><path d="M1573.807,472.344l-28.466,53.983-61.777-1.9" transform="translate(-1483.564 -472.344)" fill="none" stroke="#fff" stroke-linejoin="round" stroke-width="1"/><path d="M1664.043,628.637l-60.989-2.24-29.309,54.338" transform="translate(-1483.502 -472.344)" fill="none" stroke="#fff" stroke-linejoin="round" stroke-width="1"/><line x2="57.775" y2="100.07" transform="translate(61.777 53.983)" fill="none" stroke="#fff" stroke-linejoin="round" stroke-width="1"/></g><g transform="translate(270.893 156.325)"><path d="M1754.272,472.313v-104.2l90.3-52.1,90.3,52.1v104.2l-90.3,52.1Z" transform="translate(-1754.272 -316.02)" fill="none" stroke="#fff" stroke-miterlimit="10" stroke-width="1"/><path d="M1844.452,419.789l90.32-51.7-32.515,51.7,32.515,52.526Z" transform="translate(-1754.209 -316.02)" fill="none" stroke="#fff" stroke-linejoin="round" stroke-width="1"/><path d="M1844.514,419.789l-90.242,52.524,32.437-52.524-32.358-51.644Z" transform="translate(-1754.272 -316.02)" fill="none" stroke="#fff" stroke-linejoin="round" stroke-width="1"/><line x2="115.61" transform="translate(32.437 103.769)" fill="none" stroke="#fff" stroke-linejoin="round" stroke-width="1"/><line y2="208.301" transform="translate(90.242 0.011)" fill="none" stroke="#fff" stroke-linejoin="round" stroke-width="1"/><path d="M1844.507,316.02,1872.973,370l61.777-1.9" transform="translate(-1754.21 -316.02)" fill="none" stroke="#fff" stroke-linejoin="round" stroke-width="1"/><path d="M1754.272,472.313l60.989-2.24,29.309,54.338" transform="translate(-1754.272 -316.02)" fill="none" stroke="#fff" stroke-linejoin="round" stroke-width="1"/><line x1="57.775" y2="100.07" transform="translate(60.989 53.983)" fill="none" stroke="#fff" stroke-linejoin="round" stroke-width="1"/><path d="M1844.514,316.02,1816.048,370l-61.777-1.9" transform="translate(-1754.272 -316.02)" fill="none" stroke="#fff" stroke-linejoin="round" stroke-width="1"/><path d="M1934.75,472.313l-60.989-2.24-29.309,54.338" transform="translate(-1754.209 -316.02)" fill="none" stroke="#fff" stroke-linejoin="round" stroke-width="1"/><line x2="57.775" y2="100.07" transform="translate(61.777 53.983)" fill="none" stroke="#fff" stroke-linejoin="round" stroke-width="1"/></g><g transform="translate(90.298 156.325)"><path d="M1573.8,472.313v-104.2l90.3-52.1,90.3,52.1v104.2l-90.3,52.1Z" transform="translate(-1573.8 -316.02)" fill="none" stroke="#fff" stroke-miterlimit="10" stroke-width="1"/><path d="M1663.98,419.789l90.321-51.7-32.515,51.7,32.515,52.526Z" transform="translate(-1573.738 -316.02)" fill="none" stroke="#fff" stroke-linejoin="round" stroke-width="1"/><path d="M1664.042,419.789,1573.8,472.313l32.437-52.524-32.358-51.644Z" transform="translate(-1573.8 -316.02)" fill="none" stroke="#fff" stroke-linejoin="round" stroke-width="1"/><line x2="115.61" transform="translate(32.437 103.769)" fill="none" stroke="#fff" stroke-linejoin="round" stroke-width="1"/><line y2="208.301" transform="translate(90.242 0.011)" fill="none" stroke="#fff" stroke-linejoin="round" stroke-width="1"/><path d="M1664.036,316.02,1692.5,370l61.777-1.9" transform="translate(-1573.738 -316.02)" fill="none" stroke="#fff" stroke-linejoin="round" stroke-width="1"/><path d="M1573.8,472.313l60.989-2.24L1664.1,524.41" transform="translate(-1573.8 -316.02)" fill="none" stroke="#fff" stroke-linejoin="round" stroke-width="1"/><line x1="57.775" y2="100.07" transform="translate(60.989 53.983)" fill="none" stroke="#fff" stroke-linejoin="round" stroke-width="1"/><path d="M1664.043,316.02,1635.577,370l-61.777-1.9" transform="translate(-1573.8 -316.02)" fill="none" stroke="#fff" stroke-linejoin="round" stroke-width="1"/><path d="M1754.279,472.313l-60.989-2.24-29.309,54.338" transform="translate(-1573.738 -316.02)" fill="none" stroke="#fff" stroke-linejoin="round" stroke-width="1"/><line x2="57.775" y2="100.07" transform="translate(61.777 53.983)" fill="none" stroke="#fff" stroke-linejoin="round" stroke-width="1"/></g><g transform="translate(180.596)"><path d="M1664.036,315.988v-104.2l90.3-52.1,90.3,52.1v104.2l-90.3,52.1Z" transform="translate(-1664.036 -159.695)" fill="none" stroke="#fff" stroke-miterlimit="10" stroke-width="1"/><path d="M1754.216,263.465l90.32-51.7-32.515,51.7,32.515,52.526Z" transform="translate(-1663.974 -159.695)" fill="none" stroke="#fff" stroke-linejoin="round" stroke-width="1"/><path d="M1754.278,263.465l-90.242,52.524,32.437-52.524-32.358-51.644Z" transform="translate(-1664.036 -159.695)" fill="none" stroke="#fff" stroke-linejoin="round" stroke-width="1"/><line x2="115.61" transform="translate(32.437 103.769)" fill="none" stroke="#fff" stroke-linejoin="round" stroke-width="1"/><line y2="208.301" transform="translate(90.242 0.011)" fill="none" stroke="#fff" stroke-linejoin="round" stroke-width="1"/><path d="M1754.272,159.7l28.466,53.983,61.777-1.9" transform="translate(-1663.974 -159.695)" fill="none" stroke="#fff" stroke-linejoin="round" stroke-width="1"/><path d="M1664.036,315.988l60.989-2.24,29.309,54.338" transform="translate(-1664.036 -159.695)" fill="none" stroke="#fff" stroke-linejoin="round" stroke-width="1"/><line x1="57.775" y2="100.07" transform="translate(60.989 53.983)" fill="none" stroke="#fff" stroke-linejoin="round" stroke-width="1"/><path d="M1754.279,159.7l-28.466,53.983-61.777-1.9" transform="translate(-1664.036 -159.695)" fill="none" stroke="#fff" stroke-linejoin="round" stroke-width="1"/><path d="M1844.514,315.988l-60.989-2.24-29.309,54.338" transform="translate(-1663.974 -159.695)" fill="none" stroke="#fff" stroke-linejoin="round" stroke-width="1"/><line x2="57.775" y2="100.07" transform="translate(61.777 53.983)" fill="none" stroke="#fff" stroke-linejoin="round" stroke-width="1"/></g><path d="M1483.564,315.988v-104.2l90.3-52.1,90.3,52.1v104.2l-90.3,52.1Z" transform="translate(-1483.564 -159.695)" fill="none" stroke="#fff" stroke-miterlimit="10" stroke-width="1"/><path d="M1573.744,263.465l90.32-51.7-32.515,51.7,32.515,52.526Z" transform="translate(-1483.502 -159.695)" fill="none" stroke="#fff" stroke-linejoin="round" stroke-width="1"/><path d="M1573.806,263.465l-90.242,52.524L1516,263.465l-32.358-51.644Z" transform="translate(-1483.564 -159.695)" fill="none" stroke="#fff" stroke-linejoin="round" stroke-width="1"/><line x2="115.61" transform="translate(32.437 103.769)" fill="none" stroke="#fff" stroke-linejoin="round" stroke-width="1"/><line y2="208.301" transform="translate(90.242 0.011)" fill="none" stroke="#fff" stroke-linejoin="round" stroke-width="1"/><path d="M1573.8,159.7l28.466,53.983,61.777-1.9" transform="translate(-1483.502 -159.695)" fill="none" stroke="#fff" stroke-linejoin="round" stroke-width="1"/><path d="M1483.564,315.988l60.989-2.24,29.309,54.338" transform="translate(-1483.564 -159.695)" fill="none" stroke="#fff" stroke-linejoin="round" stroke-width="1"/><line x1="57.775" y2="100.07" transform="translate(60.989 53.983)" fill="none" stroke="#fff" stroke-linejoin="round" stroke-width="1"/><path d="M1573.807,159.7l-28.466,53.983-61.777-1.9" transform="translate(-1483.564 -159.695)" fill="none" stroke="#fff" stroke-linejoin="round" stroke-width="1"/><path d="M1664.043,315.988l-60.989-2.24-29.309,54.338" transform="translate(-1483.502 -159.695)" fill="none" stroke="#fff" stroke-linejoin="round" stroke-width="1"/><line x2="57.775" y2="100.07" transform="translate(61.777 53.983)" fill="none" stroke="#fff" stroke-linejoin="round" stroke-width="1"/></g><g transform="translate(451.668 156.325)"><path d="M1573.773,159.723V55.528l90.3-52.1,90.3,52.1v104.2l-90.3,52.1Z" transform="translate(-1573.773 -3.43)" fill="none" stroke="#fff" stroke-miterlimit="10" stroke-width="1"/><path d="M1663.953,107.2l90.321-51.7-32.515,51.7,32.515,52.526Z" transform="translate(-1573.711 -3.43)" fill="none" stroke="#fff" stroke-linejoin="round" stroke-width="1"/><path d="M1664.015,107.2l-90.242,52.524,32.437-52.524-32.358-51.644Z" transform="translate(-1573.773 -3.43)" fill="none" stroke="#fff" stroke-linejoin="round" stroke-width="1"/><line x2="115.61" transform="translate(32.437 103.769)" fill="none" stroke="#fff" stroke-linejoin="round" stroke-width="1"/><line y2="208.301" transform="translate(90.242 0.011)" fill="none" stroke="#fff" stroke-linejoin="round" stroke-width="1"/><path d="M1664.008,3.43l28.466,53.983,61.777-1.9" transform="translate(-1573.711 -3.43)" fill="none" stroke="#fff" stroke-linejoin="round" stroke-width="1"/><path d="M1573.773,159.723l60.989-2.24,29.309,54.338" transform="translate(-1573.773 -3.43)" fill="none" stroke="#fff" stroke-linejoin="round" stroke-width="1"/><line x1="57.775" y2="100.07" transform="translate(60.989 53.983)" fill="none" stroke="#fff" stroke-linejoin="round" stroke-width="1"/><path d="M1664.016,3.43,1635.55,57.413l-61.777-1.9" transform="translate(-1573.773 -3.43)" fill="none" stroke="#fff" stroke-linejoin="round" stroke-width="1"/><path d="M1754.251,159.723l-60.989-2.24-29.309,54.338" transform="translate(-1573.711 -3.43)" fill="none" stroke="#fff" stroke-linejoin="round" stroke-width="1"/><line x2="57.775" y2="100.07" transform="translate(61.777 53.983)" fill="none" stroke="#fff" stroke-linejoin="round" stroke-width="1"/></g><g transform="translate(271.073 156.325)"><path d="M1393.3,159.723V55.528l90.3-52.1,90.3,52.1v104.2l-90.3,52.1Z" transform="translate(-1393.301 -3.43)" fill="none" stroke="#fff" stroke-miterlimit="10" stroke-width="1"/><path d="M1483.481,107.2,1573.8,55.5l-32.515,51.7,32.515,52.526Z" transform="translate(-1393.239 -3.43)" fill="none" stroke="#fff" stroke-linejoin="round" stroke-width="1"/><path d="M1483.543,107.2,1393.3,159.723l32.437-52.524L1393.38,55.556Z" transform="translate(-1393.301 -3.43)" fill="none" stroke="#fff" stroke-linejoin="round" stroke-width="1"/><line x2="115.61" transform="translate(32.437 103.769)" fill="none" stroke="#fff" stroke-linejoin="round" stroke-width="1"/><line y2="208.301" transform="translate(90.242 0.011)" fill="none" stroke="#fff" stroke-linejoin="round" stroke-width="1"/><path d="M1483.537,3.43,1512,57.413l61.777-1.9" transform="translate(-1393.239 -3.43)" fill="none" stroke="#fff" stroke-linejoin="round" stroke-width="1"/><path d="M1393.3,159.723l60.989-2.24,29.309,54.338" transform="translate(-1393.301 -3.43)" fill="none" stroke="#fff" stroke-linejoin="round" stroke-width="1"/><line x1="57.775" y2="100.07" transform="translate(60.989 53.983)" fill="none" stroke="#fff" stroke-linejoin="round" stroke-width="1"/><path d="M1483.544,3.43l-28.466,53.983-61.777-1.9" transform="translate(-1393.301 -3.43)" fill="none" stroke="#fff" stroke-linejoin="round" stroke-width="1"/><path d="M1573.78,159.723l-60.989-2.24-29.309,54.338" transform="translate(-1393.239 -3.43)" fill="none" stroke="#fff" stroke-linejoin="round" stroke-width="1"/><line x2="57.775" y2="100.07" transform="translate(61.777 53.983)" fill="none" stroke="#fff" stroke-linejoin="round" stroke-width="1"/></g><g transform="translate(361.315)"><path d="M1483.482,3.4V-100.8l90.3-52.1,90.3,52.1V3.4l-90.3,52.1Z" transform="translate(-1483.482 152.894)" fill="none" stroke="#fff" stroke-miterlimit="10" stroke-width="1"/><path d="M1573.662-49.125l90.32-51.7-32.515,51.7L1663.982,3.4Z" transform="translate(-1483.42 152.894)" fill="none" stroke="#fff" stroke-linejoin="round" stroke-width="1"/><path d="M1573.724-49.125,1483.482,3.4l32.437-52.524-32.358-51.644Z" transform="translate(-1483.482 152.894)" fill="none" stroke="#fff" stroke-linejoin="round" stroke-width="1"/><line x2="115.61" transform="translate(32.437 103.769)" fill="none" stroke="#fff" stroke-linejoin="round" stroke-width="1"/><line y2="208.301" transform="translate(90.242 0.011)" fill="none" stroke="#fff" stroke-linejoin="round" stroke-width="1"/><path d="M1573.718-152.894l28.466,53.983,61.777-1.9" transform="translate(-1483.42 152.894)" fill="none" stroke="#fff" stroke-linejoin="round" stroke-width="1"/><path d="M1483.482,3.4l60.989-2.24L1573.78,55.5" transform="translate(-1483.482 152.894)" fill="none" stroke="#fff" stroke-linejoin="round" stroke-width="1"/><line x1="57.775" y2="100.07" transform="translate(60.989 53.983)" fill="none" stroke="#fff" stroke-linejoin="round" stroke-width="1"/><path d="M1573.725-152.894l-28.466,53.983-61.777-1.9" transform="translate(-1483.482 152.894)" fill="none" stroke="#fff" stroke-linejoin="round" stroke-width="1"/><path d="M1663.96,3.4l-60.989-2.24L1573.663,55.5" transform="translate(-1483.42 152.894)" fill="none" stroke="#fff" stroke-linejoin="round" stroke-width="1"/><line x2="57.775" y2="100.07" transform="translate(61.777 53.983)" fill="none" stroke="#fff" stroke-linejoin="round" stroke-width="1"/></g></g><g transform="translate(0 938.737)"><g transform="translate(0 155.941)"><g transform="translate(0 312.649)"><g transform="translate(270.893 156.325)"><path d="M670.743,1097.3V993.1l90.3-52.1,90.3,52.1v104.2l-90.3,52.1Z" transform="translate(-670.743 -941.005)" fill="none" stroke="#fff" stroke-miterlimit="10" stroke-width="1"/><path d="M760.923,1044.774l90.32-51.7-32.515,51.7,32.515,52.526Z" transform="translate(-670.681 -941.005)" fill="none" stroke="#fff" stroke-linejoin="round" stroke-width="1"/><path d="M760.985,1044.774,670.743,1097.3l32.437-52.524-32.358-51.644Z" transform="translate(-670.743 -941.005)" fill="none" stroke="#fff" stroke-linejoin="round" stroke-width="1"/><line x2="115.61" transform="translate(32.437 103.769)" fill="none" stroke="#fff" stroke-linejoin="round" stroke-width="1"/><line y2="208.301" transform="translate(90.242 0.011)" fill="none" stroke="#fff" stroke-linejoin="round" stroke-width="1"/><path d="M760.979,941l28.466,53.983,61.777-1.9" transform="translate(-670.681 -941.005)" fill="none" stroke="#fff" stroke-linejoin="round" stroke-width="1"/><path d="M670.743,1097.3l60.989-2.24,29.309,54.338" transform="translate(-670.743 -941.005)" fill="none" stroke="#fff" stroke-linejoin="round" stroke-width="1"/><line x1="57.775" y2="100.07" transform="translate(60.989 53.983)" fill="none" stroke="#fff" stroke-linejoin="round" stroke-width="1"/><path d="M760.986,941,732.52,994.988l-61.777-1.9" transform="translate(-670.743 -941.005)" fill="none" stroke="#fff" stroke-linejoin="round" stroke-width="1"/><path d="M851.222,1097.3l-60.989-2.24L760.924,1149.4" transform="translate(-670.681 -941.005)" fill="none" stroke="#fff" stroke-linejoin="round" stroke-width="1"/><line x2="57.775" y2="100.07" transform="translate(61.777 53.983)" fill="none" stroke="#fff" stroke-linejoin="round" stroke-width="1"/></g><g transform="translate(90.298 156.325)"><path d="M490.272,1097.3V993.1l90.3-52.1,90.3,52.1v104.2l-90.3,52.1Z" transform="translate(-490.272 -941.005)" fill="none" stroke="#fff" stroke-miterlimit="10" stroke-width="1"/><path d="M580.452,1044.774l90.32-51.7-32.515,51.7,32.515,52.526Z" transform="translate(-490.21 -941.005)" fill="none" stroke="#fff" stroke-linejoin="round" stroke-width="1"/><path d="M580.514,1044.774,490.272,1097.3l32.437-52.524L490.35,993.131Z" transform="translate(-490.272 -941.005)" fill="none" stroke="#fff" stroke-linejoin="round" stroke-width="1"/><line x2="115.61" transform="translate(32.437 103.769)" fill="none" stroke="#fff" stroke-linejoin="round" stroke-width="1"/><line y2="208.301" transform="translate(90.242 0.011)" fill="none" stroke="#fff" stroke-linejoin="round" stroke-width="1"/><path d="M580.507,941l28.466,53.983,61.777-1.9" transform="translate(-490.21 -941.005)" fill="none" stroke="#fff" stroke-linejoin="round" stroke-width="1"/><path d="M490.272,1097.3l60.989-2.24,29.309,54.338" transform="translate(-490.272 -941.005)" fill="none" stroke="#fff" stroke-linejoin="round" stroke-width="1"/><line x1="57.775" y2="100.07" transform="translate(60.989 53.983)" fill="none" stroke="#fff" stroke-linejoin="round" stroke-width="1"/><path d="M580.514,941l-28.466,53.983-61.777-1.9" transform="translate(-490.272 -941.005)" fill="none" stroke="#fff" stroke-linejoin="round" stroke-width="1"/><path d="M670.75,1097.3l-60.989-2.24L580.453,1149.4" transform="translate(-490.21 -941.005)" fill="none" stroke="#fff" stroke-linejoin="round" stroke-width="1"/><line x2="57.775" y2="100.07" transform="translate(61.777 53.983)" fill="none" stroke="#fff" stroke-linejoin="round" stroke-width="1"/></g><g transform="translate(180.596)"><path d="M580.507,940.973v-104.2l90.3-52.1,90.3,52.1v104.2l-90.3,52.1Z" transform="translate(-580.507 -784.68)" fill="none" stroke="#fff" stroke-miterlimit="10" stroke-width="1"/><path d="M670.687,888.45l90.32-51.7-32.515,51.7,32.515,52.526Z" transform="translate(-580.445 -784.68)" fill="none" stroke="#fff" stroke-linejoin="round" stroke-width="1"/><path d="M670.749,888.45l-90.242,52.524,32.437-52.524-32.358-51.644Z" transform="translate(-580.507 -784.68)" fill="none" stroke="#fff" stroke-linejoin="round" stroke-width="1"/><line x2="115.61" transform="translate(32.437 103.769)" fill="none" stroke="#fff" stroke-linejoin="round" stroke-width="1"/><line y2="208.301" transform="translate(90.242 0.011)" fill="none" stroke="#fff" stroke-linejoin="round" stroke-width="1"/><path d="M670.743,784.68l28.466,53.983,61.777-1.9" transform="translate(-580.445 -784.68)" fill="none" stroke="#fff" stroke-linejoin="round" stroke-width="1"/><path d="M580.507,940.973l60.989-2.24,29.309,54.338" transform="translate(-580.507 -784.68)" fill="none" stroke="#fff" stroke-linejoin="round" stroke-width="1"/><line x1="57.775" y2="100.07" transform="translate(60.989 53.983)" fill="none" stroke="#fff" stroke-linejoin="round" stroke-width="1"/><path d="M670.75,784.68l-28.466,53.983-61.777-1.9" transform="translate(-580.507 -784.68)" fill="none" stroke="#fff" stroke-linejoin="round" stroke-width="1"/><path d="M760.986,940.973,700,938.733l-29.309,54.338" transform="translate(-580.445 -784.68)" fill="none" stroke="#fff" stroke-linejoin="round" stroke-width="1"/><line x2="57.775" y2="100.07" transform="translate(61.777 53.983)" fill="none" stroke="#fff" stroke-linejoin="round" stroke-width="1"/></g><path d="M400.036,940.973v-104.2l90.3-52.1,90.3,52.1v104.2l-90.3,52.1Z" transform="translate(-400.036 -784.68)" fill="none" stroke="#fff" stroke-miterlimit="10" stroke-width="1"/><path d="M490.216,888.45l90.32-51.7-32.515,51.7,32.515,52.526Z" transform="translate(-399.974 -784.68)" fill="none" stroke="#fff" stroke-linejoin="round" stroke-width="1"/><path d="M490.278,888.45l-90.242,52.524,32.437-52.524-32.358-51.644Z" transform="translate(-400.036 -784.68)" fill="none" stroke="#fff" stroke-linejoin="round" stroke-width="1"/><line x2="115.61" transform="translate(32.437 103.769)" fill="none" stroke="#fff" stroke-linejoin="round" stroke-width="1"/><line y2="208.301" transform="translate(90.242 0.011)" fill="none" stroke="#fff" stroke-linejoin="round" stroke-width="1"/><path d="M490.272,784.68l28.466,53.983,61.777-1.9" transform="translate(-399.974 -784.68)" fill="none" stroke="#fff" stroke-linejoin="round" stroke-width="1"/><path d="M400.036,940.973l60.989-2.24,29.309,54.338" transform="translate(-400.036 -784.68)" fill="none" stroke="#fff" stroke-linejoin="round" stroke-width="1"/><line x1="57.775" y2="100.07" transform="translate(60.989 53.983)" fill="none" stroke="#fff" stroke-linejoin="round" stroke-width="1"/><path d="M490.279,784.68l-28.466,53.983-61.777-1.9" transform="translate(-400.036 -784.68)" fill="none" stroke="#fff" stroke-linejoin="round" stroke-width="1"/><path d="M580.515,940.973l-60.989-2.24-29.309,54.338" transform="translate(-399.974 -784.68)" fill="none" stroke="#fff" stroke-linejoin="round" stroke-width="1"/><line x2="57.775" y2="100.07" transform="translate(61.777 53.983)" fill="none" stroke="#fff" stroke-linejoin="round" stroke-width="1"/></g><g transform="translate(270.893 156.325)"><path d="M670.743,784.649v-104.2l90.3-52.1,90.3,52.1v104.2l-90.3,52.1Z" transform="translate(-670.743 -628.356)" fill="none" stroke="#fff" stroke-miterlimit="10" stroke-width="1"/><path d="M760.923,732.125l90.32-51.7-32.515,51.7,32.515,52.526Z" transform="translate(-670.681 -628.356)" fill="none" stroke="#fff" stroke-linejoin="round" stroke-width="1"/><path d="M760.985,732.125l-90.242,52.524,32.437-52.524-32.358-51.643Z" transform="translate(-670.743 -628.356)" fill="none" stroke="#fff" stroke-linejoin="round" stroke-width="1"/><line x2="115.61" transform="translate(32.437 103.769)" fill="none" stroke="#fff" stroke-linejoin="round" stroke-width="1"/><line y2="208.301" transform="translate(90.242 0.011)" fill="none" stroke="#fff" stroke-linejoin="round" stroke-width="1"/><path d="M760.979,628.356l28.466,53.983,61.777-1.9" transform="translate(-670.681 -628.356)" fill="none" stroke="#fff" stroke-linejoin="round" stroke-width="1"/><path d="M670.743,784.649l60.989-2.24,29.309,54.338" transform="translate(-670.743 -628.356)" fill="none" stroke="#fff" stroke-linejoin="round" stroke-width="1"/><line x1="57.775" y2="100.07" transform="translate(60.989 53.983)" fill="none" stroke="#fff" stroke-linejoin="round" stroke-width="1"/><path d="M760.986,628.356,732.52,682.339l-61.777-1.9" transform="translate(-670.743 -628.356)" fill="none" stroke="#fff" stroke-linejoin="round" stroke-width="1"/><path d="M851.222,784.649l-60.989-2.24-29.309,54.338" transform="translate(-670.681 -628.356)" fill="none" stroke="#fff" stroke-linejoin="round" stroke-width="1"/><line x2="57.775" y2="100.07" transform="translate(61.777 53.983)" fill="none" stroke="#fff" stroke-linejoin="round" stroke-width="1"/></g><g transform="translate(90.298 156.325)"><path d="M490.272,784.649v-104.2l90.3-52.1,90.3,52.1v104.2l-90.3,52.1Z" transform="translate(-490.272 -628.356)" fill="none" stroke="#fff" stroke-miterlimit="10" stroke-width="1"/><path d="M580.452,732.125l90.32-51.7-32.515,51.7,32.515,52.526Z" transform="translate(-490.21 -628.356)" fill="none" stroke="#fff" stroke-linejoin="round" stroke-width="1"/><path d="M580.514,732.125l-90.242,52.524,32.437-52.524L490.35,680.482Z" transform="translate(-490.272 -628.356)" fill="none" stroke="#fff" stroke-linejoin="round" stroke-width="1"/><line x2="115.61" transform="translate(32.437 103.769)" fill="none" stroke="#fff" stroke-linejoin="round" stroke-width="1"/><line y2="208.301" transform="translate(90.242 0.011)" fill="none" stroke="#fff" stroke-linejoin="round" stroke-width="1"/><path d="M580.507,628.356l28.466,53.983,61.777-1.9" transform="translate(-490.21 -628.356)" fill="none" stroke="#fff" stroke-linejoin="round" stroke-width="1"/><path d="M490.272,784.649l60.989-2.24,29.309,54.338" transform="translate(-490.272 -628.356)" fill="none" stroke="#fff" stroke-linejoin="round" stroke-width="1"/><line x1="57.775" y2="100.07" transform="translate(60.989 53.983)" fill="none" stroke="#fff" stroke-linejoin="round" stroke-width="1"/><path d="M580.514,628.356l-28.466,53.983-61.777-1.9" transform="translate(-490.272 -628.356)" fill="none" stroke="#fff" stroke-linejoin="round" stroke-width="1"/><path d="M670.75,784.649l-60.989-2.24-29.309,54.338" transform="translate(-490.21 -628.356)" fill="none" stroke="#fff" stroke-linejoin="round" stroke-width="1"/><line x2="57.775" y2="100.07" transform="translate(61.777 53.983)" fill="none" stroke="#fff" stroke-linejoin="round" stroke-width="1"/></g><g transform="translate(180.596)"><path d="M580.507,628.324v-104.2l90.3-52.1,90.3,52.1v104.2l-90.3,52.1Z" transform="translate(-580.507 -472.031)" fill="none" stroke="#fff" stroke-miterlimit="10" stroke-width="1"/><path d="M670.687,575.8l90.32-51.7-32.515,51.7,32.515,52.526Z" transform="translate(-580.445 -472.031)" fill="none" stroke="#fff" stroke-linejoin="round" stroke-width="1"/><path d="M670.749,575.8l-90.242,52.524L612.944,575.8l-32.358-51.643Z" transform="translate(-580.507 -472.031)" fill="none" stroke="#fff" stroke-linejoin="round" stroke-width="1"/><line x2="115.61" transform="translate(32.437 103.769)" fill="none" stroke="#fff" stroke-linejoin="round" stroke-width="1"/><line y2="208.301" transform="translate(90.242 0.011)" fill="none" stroke="#fff" stroke-linejoin="round" stroke-width="1"/><path d="M670.743,472.031l28.466,53.983,61.777-1.9" transform="translate(-580.445 -472.031)" fill="none" stroke="#fff" stroke-linejoin="round" stroke-width="1"/><path d="M580.507,628.324l60.989-2.24,29.309,54.338" transform="translate(-580.507 -472.031)" fill="none" stroke="#fff" stroke-linejoin="round" stroke-width="1"/><line x1="57.775" y2="100.07" transform="translate(60.989 53.983)" fill="none" stroke="#fff" stroke-linejoin="round" stroke-width="1"/><path d="M670.75,472.031l-28.466,53.983-61.777-1.9" transform="translate(-580.507 -472.031)" fill="none" stroke="#fff" stroke-linejoin="round" stroke-width="1"/><path d="M760.986,628.324,700,626.084l-29.309,54.338" transform="translate(-580.445 -472.031)" fill="none" stroke="#fff" stroke-linejoin="round" stroke-width="1"/><line x2="57.775" y2="100.07" transform="translate(61.777 53.983)" fill="none" stroke="#fff" stroke-linejoin="round" stroke-width="1"/></g><path d="M400.036,628.324v-104.2l90.3-52.1,90.3,52.1v104.2l-90.3,52.1Z" transform="translate(-400.036 -472.031)" fill="none" stroke="#fff" stroke-miterlimit="10" stroke-width="1"/><path d="M490.216,575.8l90.32-51.7-32.515,51.7,32.515,52.526Z" transform="translate(-399.974 -472.031)" fill="none" stroke="#fff" stroke-linejoin="round" stroke-width="1"/><path d="M490.278,575.8l-90.242,52.524L432.473,575.8l-32.358-51.643Z" transform="translate(-400.036 -472.031)" fill="none" stroke="#fff" stroke-linejoin="round" stroke-width="1"/><line x2="115.61" transform="translate(32.437 103.769)" fill="none" stroke="#fff" stroke-linejoin="round" stroke-width="1"/><line y2="208.301" transform="translate(90.242 0.011)" fill="none" stroke="#fff" stroke-linejoin="round" stroke-width="1"/><path d="M490.272,472.031l28.466,53.983,61.777-1.9" transform="translate(-399.974 -472.031)" fill="none" stroke="#fff" stroke-linejoin="round" stroke-width="1"/><path d="M400.036,628.324l60.989-2.24,29.309,54.338" transform="translate(-400.036 -472.031)" fill="none" stroke="#fff" stroke-linejoin="round" stroke-width="1"/><line x1="57.775" y2="100.07" transform="translate(60.989 53.983)" fill="none" stroke="#fff" stroke-linejoin="round" stroke-width="1"/><path d="M490.279,472.031l-28.466,53.983-61.777-1.9" transform="translate(-400.036 -472.031)" fill="none" stroke="#fff" stroke-linejoin="round" stroke-width="1"/><path d="M580.515,628.324l-60.989-2.24-29.309,54.338" transform="translate(-399.974 -472.031)" fill="none" stroke="#fff" stroke-linejoin="round" stroke-width="1"/><line x2="57.775" y2="100.07" transform="translate(61.777 53.983)" fill="none" stroke="#fff" stroke-linejoin="round" stroke-width="1"/></g><g transform="translate(361.398 156.265)"><g transform="translate(0 312.649)"><g transform="translate(270.893 156.325)"><path d="M1031.893,1097.622v-104.2l90.3-52.1,90.3,52.1v104.2l-90.3,52.1Z" transform="translate(-1031.893 -941.329)" fill="none" stroke="#fff" stroke-miterlimit="10" stroke-width="1"/><path d="M1122.073,1045.1l90.32-51.7-32.515,51.7,32.515,52.526Z" transform="translate(-1031.831 -941.329)" fill="none" stroke="#fff" stroke-linejoin="round" stroke-width="1"/><path d="M1122.135,1045.1l-90.242,52.524,32.437-52.524-32.358-51.644Z" transform="translate(-1031.893 -941.329)" fill="none" stroke="#fff" stroke-linejoin="round" stroke-width="1"/><line x2="115.61" transform="translate(32.437 103.769)" fill="none" stroke="#fff" stroke-linejoin="round" stroke-width="1"/><line y2="208.301" transform="translate(90.242 0.011)" fill="none" stroke="#fff" stroke-linejoin="round" stroke-width="1"/><path d="M1122.129,941.329l28.466,53.983,61.777-1.9" transform="translate(-1031.831 -941.329)" fill="none" stroke="#fff" stroke-linejoin="round" stroke-width="1"/><path d="M1031.893,1097.622l60.989-2.24,29.309,54.338" transform="translate(-1031.893 -941.329)" fill="none" stroke="#fff" stroke-linejoin="round" stroke-width="1"/><line x1="57.775" y2="100.07" transform="translate(60.989 53.983)" fill="none" stroke="#fff" stroke-linejoin="round" stroke-width="1"/><path d="M1122.136,941.329l-28.466,53.983-61.777-1.9" transform="translate(-1031.893 -941.329)" fill="none" stroke="#fff" stroke-linejoin="round" stroke-width="1"/><path d="M1212.372,1097.622l-60.989-2.24-29.309,54.338" transform="translate(-1031.831 -941.329)" fill="none" stroke="#fff" stroke-linejoin="round" stroke-width="1"/><line x2="57.775" y2="100.07" transform="translate(61.777 53.983)" fill="none" stroke="#fff" stroke-linejoin="round" stroke-width="1"/></g><g transform="translate(90.298 156.325)"><path d="M851.421,1097.622v-104.2l90.3-52.1,90.3,52.1v104.2l-90.3,52.1Z" transform="translate(-851.421 -941.329)" fill="none" stroke="#fff" stroke-miterlimit="10" stroke-width="1"/><path d="M941.6,1045.1l90.32-51.7-32.515,51.7,32.515,52.526Z" transform="translate(-851.36 -941.329)" fill="none" stroke="#fff" stroke-linejoin="round" stroke-width="1"/><path d="M941.663,1045.1l-90.242,52.524,32.437-52.524L851.5,993.455Z" transform="translate(-851.421 -941.329)" fill="none" stroke="#fff" stroke-linejoin="round" stroke-width="1"/><line x2="115.61" transform="translate(32.437 103.769)" fill="none" stroke="#fff" stroke-linejoin="round" stroke-width="1"/><line y2="208.301" transform="translate(90.242 0.011)" fill="none" stroke="#fff" stroke-linejoin="round" stroke-width="1"/><path d="M941.657,941.329l28.466,53.983,61.777-1.9" transform="translate(-851.359 -941.329)" fill="none" stroke="#fff" stroke-linejoin="round" stroke-width="1"/><path d="M851.421,1097.622l60.989-2.24,29.309,54.338" transform="translate(-851.421 -941.329)" fill="none" stroke="#fff" stroke-linejoin="round" stroke-width="1"/><line x1="57.775" y2="100.07" transform="translate(60.989 53.983)" fill="none" stroke="#fff" stroke-linejoin="round" stroke-width="1"/><path d="M941.664,941.329,913.2,995.312l-61.777-1.9" transform="translate(-851.421 -941.329)" fill="none" stroke="#fff" stroke-linejoin="round" stroke-width="1"/><path d="M1031.9,1097.622l-60.989-2.24L941.6,1149.719" transform="translate(-851.36 -941.329)" fill="none" stroke="#fff" stroke-linejoin="round" stroke-width="1"/><line x2="57.775" y2="100.07" transform="translate(61.777 53.983)" fill="none" stroke="#fff" stroke-linejoin="round" stroke-width="1"/></g><g transform="translate(180.596)"><path d="M941.657,941.3V837.1l90.3-52.1,90.3,52.1V941.3l-90.3,52.1Z" transform="translate(-941.657 -785.004)" fill="none" stroke="#fff" stroke-miterlimit="10" stroke-width="1"/><path d="M1031.837,888.774l90.32-51.7-32.515,51.7,32.515,52.526Z" transform="translate(-941.595 -785.004)" fill="none" stroke="#fff" stroke-linejoin="round" stroke-width="1"/><path d="M1031.9,888.774,941.657,941.3l32.437-52.524L941.736,837.13Z" transform="translate(-941.657 -785.004)" fill="none" stroke="#fff" stroke-linejoin="round" stroke-width="1"/><line x2="115.61" transform="translate(32.437 103.769)" fill="none" stroke="#fff" stroke-linejoin="round" stroke-width="1"/><line y2="208.301" transform="translate(90.242 0.011)" fill="none" stroke="#fff" stroke-linejoin="round" stroke-width="1"/><path d="M1031.893,785l28.466,53.983,61.777-1.9" transform="translate(-941.595 -785.004)" fill="none" stroke="#fff" stroke-linejoin="round" stroke-width="1"/><path d="M941.657,941.3l60.989-2.24,29.309,54.338" transform="translate(-941.657 -785.004)" fill="none" stroke="#fff" stroke-linejoin="round" stroke-width="1"/><line x1="57.775" y2="100.07" transform="translate(60.989 53.983)" fill="none" stroke="#fff" stroke-linejoin="round" stroke-width="1"/><path d="M1031.9,785l-28.466,53.983-61.777-1.9" transform="translate(-941.657 -785.004)" fill="none" stroke="#fff" stroke-linejoin="round" stroke-width="1"/><path d="M1122.136,941.3l-60.989-2.24-29.309,54.338" transform="translate(-941.595 -785.004)" fill="none" stroke="#fff" stroke-linejoin="round" stroke-width="1"/><line x2="57.775" y2="100.07" transform="translate(61.777 53.983)" fill="none" stroke="#fff" stroke-linejoin="round" stroke-width="1"/></g><path d="M761.186,941.3V837.1l90.3-52.1,90.3,52.1V941.3l-90.3,52.1Z" transform="translate(-761.186 -785.004)" fill="none" stroke="#fff" stroke-miterlimit="10" stroke-width="1"/><path d="M851.366,888.774l90.32-51.7-32.515,51.7L941.686,941.3Z" transform="translate(-761.124 -785.004)" fill="none" stroke="#fff" stroke-linejoin="round" stroke-width="1"/><path d="M851.428,888.774,761.186,941.3l32.437-52.524L761.264,837.13Z" transform="translate(-761.186 -785.004)" fill="none" stroke="#fff" stroke-linejoin="round" stroke-width="1"/><line x2="115.61" transform="translate(32.437 103.769)" fill="none" stroke="#fff" stroke-linejoin="round" stroke-width="1"/><line y2="208.301" transform="translate(90.242 0.011)" fill="none" stroke="#fff" stroke-linejoin="round" stroke-width="1"/><path d="M851.421,785l28.466,53.983,61.777-1.9" transform="translate(-761.124 -785.004)" fill="none" stroke="#fff" stroke-linejoin="round" stroke-width="1"/><path d="M761.186,941.3l60.989-2.24,29.309,54.338" transform="translate(-761.186 -785.004)" fill="none" stroke="#fff" stroke-linejoin="round" stroke-width="1"/><line x1="57.775" y2="100.07" transform="translate(60.989 53.983)" fill="none" stroke="#fff" stroke-linejoin="round" stroke-width="1"/><path d="M851.429,785l-28.466,53.983-61.777-1.9" transform="translate(-761.186 -785.004)" fill="none" stroke="#fff" stroke-linejoin="round" stroke-width="1"/><path d="M941.664,941.3l-60.989-2.24-29.309,54.338" transform="translate(-761.124 -785.004)" fill="none" stroke="#fff" stroke-linejoin="round" stroke-width="1"/><line x2="57.775" y2="100.07" transform="translate(61.777 53.983)" fill="none" stroke="#fff" stroke-linejoin="round" stroke-width="1"/></g><g transform="translate(270.893 156.325)"><path d="M1031.893,784.973v-104.2l90.3-52.1,90.3,52.1v104.2l-90.3,52.1Z" transform="translate(-1031.893 -628.68)" fill="none" stroke="#fff" stroke-miterlimit="10" stroke-width="1"/><path d="M1122.073,732.449l90.32-51.7-32.515,51.7,32.515,52.526Z" transform="translate(-1031.831 -628.68)" fill="none" stroke="#fff" stroke-linejoin="round" stroke-width="1"/><path d="M1122.135,732.449l-90.242,52.524,32.437-52.524-32.358-51.644Z" transform="translate(-1031.893 -628.68)" fill="none" stroke="#fff" stroke-linejoin="round" stroke-width="1"/><line x2="115.61" transform="translate(32.437 103.769)" fill="none" stroke="#fff" stroke-linejoin="round" stroke-width="1"/><line y2="208.301" transform="translate(90.242 0.011)" fill="none" stroke="#fff" stroke-linejoin="round" stroke-width="1"/><path d="M1122.129,628.68l28.466,53.983,61.777-1.9" transform="translate(-1031.831 -628.68)" fill="none" stroke="#fff" stroke-linejoin="round" stroke-width="1"/><path d="M1031.893,784.973l60.989-2.24,29.309,54.338" transform="translate(-1031.893 -628.68)" fill="none" stroke="#fff" stroke-linejoin="round" stroke-width="1"/><line x1="57.775" y2="100.07" transform="translate(60.989 53.983)" fill="none" stroke="#fff" stroke-linejoin="round" stroke-width="1"/><path d="M1122.136,628.68l-28.466,53.983-61.777-1.9" transform="translate(-1031.893 -628.68)" fill="none" stroke="#fff" stroke-linejoin="round" stroke-width="1"/><path d="M1212.372,784.973l-60.989-2.24-29.309,54.338" transform="translate(-1031.831 -628.68)" fill="none" stroke="#fff" stroke-linejoin="round" stroke-width="1"/><line x2="57.775" y2="100.07" transform="translate(61.777 53.983)" fill="none" stroke="#fff" stroke-linejoin="round" stroke-width="1"/></g><g transform="translate(90.298 156.325)"><path d="M851.421,784.973v-104.2l90.3-52.1,90.3,52.1v104.2l-90.3,52.1Z" transform="translate(-851.421 -628.68)" fill="none" stroke="#fff" stroke-miterlimit="10" stroke-width="1"/><path d="M941.6,732.449l90.32-51.7-32.515,51.7,32.515,52.526Z" transform="translate(-851.36 -628.68)" fill="none" stroke="#fff" stroke-linejoin="round" stroke-width="1"/><path d="M941.663,732.449l-90.242,52.524,32.437-52.524L851.5,680.805Z" transform="translate(-851.421 -628.68)" fill="none" stroke="#fff" stroke-linejoin="round" stroke-width="1"/><line x2="115.61" transform="translate(32.437 103.769)" fill="none" stroke="#fff" stroke-linejoin="round" stroke-width="1"/><line y2="208.301" transform="translate(90.242 0.011)" fill="none" stroke="#fff" stroke-linejoin="round" stroke-width="1"/><path d="M941.657,628.68l28.466,53.983,61.777-1.9" transform="translate(-851.359 -628.68)" fill="none" stroke="#fff" stroke-linejoin="round" stroke-width="1"/><path d="M851.421,784.973l60.989-2.24,29.309,54.338" transform="translate(-851.421 -628.68)" fill="none" stroke="#fff" stroke-linejoin="round" stroke-width="1"/><line x1="57.775" y2="100.07" transform="translate(60.989 53.983)" fill="none" stroke="#fff" stroke-linejoin="round" stroke-width="1"/><path d="M941.664,628.68,913.2,682.662l-61.777-1.9" transform="translate(-851.421 -628.68)" fill="none" stroke="#fff" stroke-linejoin="round" stroke-width="1"/><path d="M1031.9,784.973l-60.989-2.24L941.6,837.07" transform="translate(-851.36 -628.68)" fill="none" stroke="#fff" stroke-linejoin="round" stroke-width="1"/><line x2="57.775" y2="100.07" transform="translate(61.777 53.983)" fill="none" stroke="#fff" stroke-linejoin="round" stroke-width="1"/></g><g transform="translate(180.596)"><path d="M941.657,628.648v-104.2l90.3-52.1,90.3,52.1v104.2l-90.3,52.1Z" transform="translate(-941.657 -472.355)" fill="none" stroke="#fff" stroke-miterlimit="10" stroke-width="1"/><path d="M1031.837,576.124l90.32-51.7-32.515,51.7,32.515,52.526Z" transform="translate(-941.595 -472.355)" fill="none" stroke="#fff" stroke-linejoin="round" stroke-width="1"/><path d="M1031.9,576.124l-90.242,52.524,32.437-52.524-32.358-51.643Z" transform="translate(-941.657 -472.355)" fill="none" stroke="#fff" stroke-linejoin="round" stroke-width="1"/><line x2="115.61" transform="translate(32.437 103.769)" fill="none" stroke="#fff" stroke-linejoin="round" stroke-width="1"/><line y2="208.301" transform="translate(90.242 0.011)" fill="none" stroke="#fff" stroke-linejoin="round" stroke-width="1"/><path d="M1031.893,472.355l28.466,53.983,61.777-1.9" transform="translate(-941.595 -472.355)" fill="none" stroke="#fff" stroke-linejoin="round" stroke-width="1"/><path d="M941.657,628.648l60.989-2.24,29.309,54.338" transform="translate(-941.657 -472.355)" fill="none" stroke="#fff" stroke-linejoin="round" stroke-width="1"/><line x1="57.775" y2="100.07" transform="translate(60.989 53.983)" fill="none" stroke="#fff" stroke-linejoin="round" stroke-width="1"/><path d="M1031.9,472.355l-28.466,53.983-61.777-1.9" transform="translate(-941.657 -472.355)" fill="none" stroke="#fff" stroke-linejoin="round" stroke-width="1"/><path d="M1122.136,628.648l-60.989-2.24-29.309,54.338" transform="translate(-941.595 -472.355)" fill="none" stroke="#fff" stroke-linejoin="round" stroke-width="1"/><line x2="57.775" y2="100.07" transform="translate(61.777 53.983)" fill="none" stroke="#fff" stroke-linejoin="round" stroke-width="1"/></g><path d="M761.186,628.648v-104.2l90.3-52.1,90.3,52.1v104.2l-90.3,52.1Z" transform="translate(-761.186 -472.355)" fill="none" stroke="#fff" stroke-miterlimit="10" stroke-width="1"/><path d="M851.366,576.124l90.32-51.7-32.515,51.7,32.515,52.526Z" transform="translate(-761.124 -472.355)" fill="none" stroke="#fff" stroke-linejoin="round" stroke-width="1"/><path d="M851.428,576.124l-90.242,52.524,32.437-52.524-32.358-51.643Z" transform="translate(-761.186 -472.355)" fill="none" stroke="#fff" stroke-linejoin="round" stroke-width="1"/><line x2="115.61" transform="translate(32.437 103.769)" fill="none" stroke="#fff" stroke-linejoin="round" stroke-width="1"/><line y2="208.301" transform="translate(90.242 0.011)" fill="none" stroke="#fff" stroke-linejoin="round" stroke-width="1"/><path d="M851.421,472.355l28.466,53.983,61.777-1.9" transform="translate(-761.124 -472.355)" fill="none" stroke="#fff" stroke-linejoin="round" stroke-width="1"/><path d="M761.186,628.648l60.989-2.24,29.309,54.338" transform="translate(-761.186 -472.355)" fill="none" stroke="#fff" stroke-linejoin="round" stroke-width="1"/><line x1="57.775" y2="100.07" transform="translate(60.989 53.983)" fill="none" stroke="#fff" stroke-linejoin="round" stroke-width="1"/><path d="M851.429,472.355l-28.466,53.983-61.777-1.9" transform="translate(-761.186 -472.355)" fill="none" stroke="#fff" stroke-linejoin="round" stroke-width="1"/><path d="M941.664,628.648l-60.989-2.24-29.309,54.338" transform="translate(-761.124 -472.355)" fill="none" stroke="#fff" stroke-linejoin="round" stroke-width="1"/><line x2="57.775" y2="100.07" transform="translate(61.777 53.983)" fill="none" stroke="#fff" stroke-linejoin="round" stroke-width="1"/></g><g transform="translate(451.668)"><path d="M851.394,472.383v-104.2l90.3-52.1,90.3,52.1v104.2l-90.3,52.1Z" transform="translate(-851.394 -316.09)" fill="none" stroke="#fff" stroke-miterlimit="10" stroke-width="1"/><path d="M941.574,419.859l90.32-51.7-32.515,51.7,32.515,52.526Z" transform="translate(-851.332 -316.09)" fill="none" stroke="#fff" stroke-linejoin="round" stroke-width="1"/><path d="M941.636,419.859l-90.242,52.524,32.437-52.524-32.358-51.644Z" transform="translate(-851.394 -316.09)" fill="none" stroke="#fff" stroke-linejoin="round" stroke-width="1"/><line x2="115.61" transform="translate(32.437 103.769)" fill="none" stroke="#fff" stroke-linejoin="round" stroke-width="1"/><line y2="208.301" transform="translate(90.242 0.011)" fill="none" stroke="#fff" stroke-linejoin="round" stroke-width="1"/><path d="M941.63,316.09,970.1,370.073l61.777-1.9" transform="translate(-851.332 -316.09)" fill="none" stroke="#fff" stroke-linejoin="round" stroke-width="1"/><path d="M851.394,472.383l60.989-2.24,29.309,54.338" transform="translate(-851.394 -316.09)" fill="none" stroke="#fff" stroke-linejoin="round" stroke-width="1"/><line x1="57.775" y2="100.07" transform="translate(60.989 53.983)" fill="none" stroke="#fff" stroke-linejoin="round" stroke-width="1"/><path d="M941.637,316.09l-28.466,53.983-61.777-1.9" transform="translate(-851.394 -316.09)" fill="none" stroke="#fff" stroke-linejoin="round" stroke-width="1"/><path d="M1031.873,472.383l-60.989-2.24-29.309,54.338" transform="translate(-851.332 -316.09)" fill="none" stroke="#fff" stroke-linejoin="round" stroke-width="1"/><line x2="57.775" y2="100.07" transform="translate(61.777 53.983)" fill="none" stroke="#fff" stroke-linejoin="round" stroke-width="1"/></g><g transform="translate(271.073)"><path d="M670.922,472.383v-104.2l90.3-52.1,90.3,52.1v104.2l-90.3,52.1Z" transform="translate(-670.922 -316.09)" fill="none" stroke="#fff" stroke-miterlimit="10" stroke-width="1"/><path d="M761.1,419.859l90.32-51.7-32.515,51.7,32.515,52.526Z" transform="translate(-670.861 -316.09)" fill="none" stroke="#fff" stroke-linejoin="round" stroke-width="1"/><path d="M761.164,419.859l-90.242,52.524,32.437-52.524L671,368.216Z" transform="translate(-670.922 -316.09)" fill="none" stroke="#fff" stroke-linejoin="round" stroke-width="1"/><line x2="115.61" transform="translate(32.437 103.769)" fill="none" stroke="#fff" stroke-linejoin="round" stroke-width="1"/><line y2="208.301" transform="translate(90.242 0.011)" fill="none" stroke="#fff" stroke-linejoin="round" stroke-width="1"/><path d="M761.158,316.09l28.466,53.983,61.777-1.9" transform="translate(-670.86 -316.09)" fill="none" stroke="#fff" stroke-linejoin="round" stroke-width="1"/><path d="M670.922,472.383l60.989-2.24,29.309,54.338" transform="translate(-670.922 -316.09)" fill="none" stroke="#fff" stroke-linejoin="round" stroke-width="1"/><line x1="57.775" y2="100.07" transform="translate(60.989 53.983)" fill="none" stroke="#fff" stroke-linejoin="round" stroke-width="1"/><path d="M761.165,316.09,732.7,370.073l-61.777-1.9" transform="translate(-670.922 -316.09)" fill="none" stroke="#fff" stroke-linejoin="round" stroke-width="1"/><path d="M851.4,472.383l-60.989-2.24L761.1,524.481" transform="translate(-670.861 -316.09)" fill="none" stroke="#fff" stroke-linejoin="round" stroke-width="1"/><line x2="57.775" y2="100.07" transform="translate(61.777 53.983)" fill="none" stroke="#fff" stroke-linejoin="round" stroke-width="1"/></g></g><g transform="translate(180.71)"><g transform="translate(90.325 312.589)"><g transform="translate(0 312.649)"><g transform="translate(270.893 156.325)"><path d="M941.593,315.21v-104.2l90.3-52.1,90.3,52.1v104.2l-90.3,52.1Z" transform="translate(-941.593 -158.917)" fill="none" stroke="#fff" stroke-miterlimit="10" stroke-width="1"/><path d="M1031.773,262.686l90.32-51.7-32.515,51.7,32.515,52.526Z" transform="translate(-941.531 -158.917)" fill="none" stroke="#fff" stroke-linejoin="round" stroke-width="1"/><path d="M1031.835,262.686,941.593,315.21l32.437-52.524-32.358-51.644Z" transform="translate(-941.593 -158.917)" fill="none" stroke="#fff" stroke-linejoin="round" stroke-width="1"/><line x2="115.61" transform="translate(32.437 103.769)" fill="none" stroke="#fff" stroke-linejoin="round" stroke-width="1"/><line y2="208.301" transform="translate(90.242 0.011)" fill="none" stroke="#fff" stroke-linejoin="round" stroke-width="1"/><path d="M1031.829,158.917l28.466,53.983,61.777-1.9" transform="translate(-941.531 -158.917)" fill="none" stroke="#fff" stroke-linejoin="round" stroke-width="1"/><path d="M941.593,315.21l60.989-2.24,29.309,54.338" transform="translate(-941.593 -158.917)" fill="none" stroke="#fff" stroke-linejoin="round" stroke-width="1"/><line x1="57.775" y2="100.07" transform="translate(60.989 53.983)" fill="none" stroke="#fff" stroke-linejoin="round" stroke-width="1"/><path d="M1031.836,158.917,1003.37,212.9,941.593,211" transform="translate(-941.593 -158.917)" fill="none" stroke="#fff" stroke-linejoin="round" stroke-width="1"/><path d="M1122.071,315.21l-60.989-2.24-29.309,54.338" transform="translate(-941.531 -158.917)" fill="none" stroke="#fff" stroke-linejoin="round" stroke-width="1"/><line x2="57.775" y2="100.07" transform="translate(61.777 53.983)" fill="none" stroke="#fff" stroke-linejoin="round" stroke-width="1"/></g><g transform="translate(90.298 156.325)"><path d="M761.121,315.21v-104.2l90.3-52.1,90.3,52.1v104.2l-90.3,52.1Z" transform="translate(-761.121 -158.917)" fill="none" stroke="#fff" stroke-miterlimit="10" stroke-width="1"/><path d="M851.3,262.686l90.32-51.7-32.515,51.7,32.515,52.526Z" transform="translate(-761.059 -158.917)" fill="none" stroke="#fff" stroke-linejoin="round" stroke-width="1"/><path d="M851.363,262.686,761.121,315.21l32.437-52.524L761.2,211.043Z" transform="translate(-761.121 -158.917)" fill="none" stroke="#fff" stroke-linejoin="round" stroke-width="1"/><line x2="115.61" transform="translate(32.437 103.769)" fill="none" stroke="#fff" stroke-linejoin="round" stroke-width="1"/><line y2="208.301" transform="translate(90.242 0.011)" fill="none" stroke="#fff" stroke-linejoin="round" stroke-width="1"/><path d="M851.357,158.917,879.823,212.9,941.6,211" transform="translate(-761.059 -158.917)" fill="none" stroke="#fff" stroke-linejoin="round" stroke-width="1"/><path d="M761.121,315.21l60.989-2.24,29.309,54.338" transform="translate(-761.121 -158.917)" fill="none" stroke="#fff" stroke-linejoin="round" stroke-width="1"/><line x1="57.775" y2="100.07" transform="translate(60.989 53.983)" fill="none" stroke="#fff" stroke-linejoin="round" stroke-width="1"/><path d="M851.364,158.917,822.9,212.9,761.121,211" transform="translate(-761.121 -158.917)" fill="none" stroke="#fff" stroke-linejoin="round" stroke-width="1"/><path d="M941.6,315.21l-60.989-2.24L851.3,367.307" transform="translate(-761.059 -158.917)" fill="none" stroke="#fff" stroke-linejoin="round" stroke-width="1"/><line x2="57.775" y2="100.07" transform="translate(61.777 53.983)" fill="none" stroke="#fff" stroke-linejoin="round" stroke-width="1"/></g><g transform="translate(180.596)"><path d="M851.357,158.885V54.69l90.3-52.1,90.3,52.1v104.2l-90.3,52.1Z" transform="translate(-851.357 -2.592)" fill="none" stroke="#fff" stroke-miterlimit="10" stroke-width="1"/><path d="M941.537,106.361l90.32-51.7-32.515,51.7,32.515,52.526Z" transform="translate(-851.295 -2.592)" fill="none" stroke="#fff" stroke-linejoin="round" stroke-width="1"/><path d="M941.6,106.361l-90.242,52.524,32.437-52.524L851.436,54.718Z" transform="translate(-851.357 -2.592)" fill="none" stroke="#fff" stroke-linejoin="round" stroke-width="1"/><line x2="115.61" transform="translate(32.437 103.769)" fill="none" stroke="#fff" stroke-linejoin="round" stroke-width="1"/><line y2="208.301" transform="translate(90.242 0.011)" fill="none" stroke="#fff" stroke-linejoin="round" stroke-width="1"/><path d="M941.593,2.592l28.466,53.983,61.777-1.9" transform="translate(-851.295 -2.592)" fill="none" stroke="#fff" stroke-linejoin="round" stroke-width="1"/><path d="M851.357,158.885l60.989-2.24,29.309,54.338" transform="translate(-851.357 -2.592)" fill="none" stroke="#fff" stroke-linejoin="round" stroke-width="1"/><line x1="57.775" y2="100.07" transform="translate(60.989 53.983)" fill="none" stroke="#fff" stroke-linejoin="round" stroke-width="1"/><path d="M941.6,2.592,913.134,56.575l-61.777-1.9" transform="translate(-851.357 -2.592)" fill="none" stroke="#fff" stroke-linejoin="round" stroke-width="1"/><path d="M1031.836,158.885l-60.989-2.24-29.309,54.338" transform="translate(-851.295 -2.592)" fill="none" stroke="#fff" stroke-linejoin="round" stroke-width="1"/><line x2="57.775" y2="100.07" transform="translate(61.777 53.983)" fill="none" stroke="#fff" stroke-linejoin="round" stroke-width="1"/></g><path d="M670.885,158.885V54.69l90.3-52.1,90.3,52.1v104.2l-90.3,52.1Z" transform="translate(-670.885 -2.592)" fill="none" stroke="#fff" stroke-miterlimit="10" stroke-width="1"/><path d="M761.065,106.361l90.32-51.7-32.515,51.7,32.515,52.526Z" transform="translate(-670.823 -2.592)" fill="none" stroke="#fff" stroke-linejoin="round" stroke-width="1"/><path d="M761.127,106.361l-90.242,52.524,32.437-52.524L670.964,54.718Z" transform="translate(-670.885 -2.592)" fill="none" stroke="#fff" stroke-linejoin="round" stroke-width="1"/><line x2="115.61" transform="translate(32.437 103.769)" fill="none" stroke="#fff" stroke-linejoin="round" stroke-width="1"/><line y2="208.301" transform="translate(90.242 0.011)" fill="none" stroke="#fff" stroke-linejoin="round" stroke-width="1"/><path d="M761.121,2.592l28.466,53.983,61.777-1.9" transform="translate(-670.823 -2.592)" fill="none" stroke="#fff" stroke-linejoin="round" stroke-width="1"/><path d="M670.885,158.885l60.989-2.24,29.309,54.338" transform="translate(-670.885 -2.592)" fill="none" stroke="#fff" stroke-linejoin="round" stroke-width="1"/><line x1="57.775" y2="100.07" transform="translate(60.989 53.983)" fill="none" stroke="#fff" stroke-linejoin="round" stroke-width="1"/><path d="M761.128,2.592,732.662,56.575l-61.777-1.9" transform="translate(-670.885 -2.592)" fill="none" stroke="#fff" stroke-linejoin="round" stroke-width="1"/><path d="M851.364,158.885l-60.989-2.24-29.309,54.338" transform="translate(-670.823 -2.592)" fill="none" stroke="#fff" stroke-linejoin="round" stroke-width="1"/><line x2="57.775" y2="100.07" transform="translate(61.777 53.983)" fill="none" stroke="#fff" stroke-linejoin="round" stroke-width="1"/></g><g transform="translate(270.893 156.325)"><path d="M941.593,2.561v-104.2l90.3-52.1,90.3,52.1V2.561l-90.3,52.1Z" transform="translate(-941.593 153.732)" fill="none" stroke="#fff" stroke-miterlimit="10" stroke-width="1"/><path d="M1031.773-49.963l90.32-51.7-32.515,51.7,32.515,52.526Z" transform="translate(-941.531 153.732)" fill="none" stroke="#fff" stroke-linejoin="round" stroke-width="1"/><path d="M1031.835-49.963,941.593,2.561,974.03-49.963l-32.358-51.644Z" transform="translate(-941.593 153.732)" fill="none" stroke="#fff" stroke-linejoin="round" stroke-width="1"/><line x2="115.61" transform="translate(32.437 103.769)" fill="none" stroke="#fff" stroke-linejoin="round" stroke-width="1"/><line y2="208.301" transform="translate(90.242 0.011)" fill="none" stroke="#fff" stroke-linejoin="round" stroke-width="1"/><path d="M1031.829-153.732l28.466,53.983,61.777-1.9" transform="translate(-941.531 153.732)" fill="none" stroke="#fff" stroke-linejoin="round" stroke-width="1"/><path d="M941.593,2.561l60.989-2.24,29.309,54.338" transform="translate(-941.593 153.732)" fill="none" stroke="#fff" stroke-linejoin="round" stroke-width="1"/><line x1="57.775" y2="100.07" transform="translate(60.989 53.983)" fill="none" stroke="#fff" stroke-linejoin="round" stroke-width="1"/><path d="M1031.836-153.732,1003.37-99.75l-61.777-1.9" transform="translate(-941.593 153.732)" fill="none" stroke="#fff" stroke-linejoin="round" stroke-width="1"/><path d="M1122.071,2.561,1061.083.321l-29.309,54.338" transform="translate(-941.531 153.732)" fill="none" stroke="#fff" stroke-linejoin="round" stroke-width="1"/><line x2="57.775" y2="100.07" transform="translate(61.777 53.983)" fill="none" stroke="#fff" stroke-linejoin="round" stroke-width="1"/></g><g transform="translate(90.298 156.325)"><path d="M761.121,2.561v-104.2l90.3-52.1,90.3,52.1V2.561l-90.3,52.1Z" transform="translate(-761.121 153.732)" fill="none" stroke="#fff" stroke-miterlimit="10" stroke-width="1"/><path d="M851.3-49.963l90.32-51.7-32.515,51.7L941.622,2.563Z" transform="translate(-761.059 153.732)" fill="none" stroke="#fff" stroke-linejoin="round" stroke-width="1"/><path d="M851.363-49.963,761.121,2.561l32.437-52.524L761.2-101.607Z" transform="translate(-761.121 153.732)" fill="none" stroke="#fff" stroke-linejoin="round" stroke-width="1"/><line x2="115.61" transform="translate(32.437 103.769)" fill="none" stroke="#fff" stroke-linejoin="round" stroke-width="1"/><line y2="208.301" transform="translate(90.242 0.011)" fill="none" stroke="#fff" stroke-linejoin="round" stroke-width="1"/><path d="M851.357-153.732,879.823-99.75l61.777-1.9" transform="translate(-761.059 153.732)" fill="none" stroke="#fff" stroke-linejoin="round" stroke-width="1"/><path d="M761.121,2.561,822.11.321l29.309,54.338" transform="translate(-761.121 153.732)" fill="none" stroke="#fff" stroke-linejoin="round" stroke-width="1"/><line x1="57.775" y2="100.07" transform="translate(60.989 53.983)" fill="none" stroke="#fff" stroke-linejoin="round" stroke-width="1"/><path d="M851.364-153.732,822.9-99.75l-61.777-1.9" transform="translate(-761.121 153.732)" fill="none" stroke="#fff" stroke-linejoin="round" stroke-width="1"/><path d="M941.6,2.561,880.611.321,851.3,54.658" transform="translate(-761.059 153.732)" fill="none" stroke="#fff" stroke-linejoin="round" stroke-width="1"/><line x2="57.775" y2="100.07" transform="translate(61.777 53.983)" fill="none" stroke="#fff" stroke-linejoin="round" stroke-width="1"/></g><g transform="translate(180.596)"><path d="M851.357-153.764v-104.2l90.3-52.1,90.3,52.1v104.2l-90.3,52.1Z" transform="translate(-851.357 310.057)" fill="none" stroke="#fff" stroke-miterlimit="10" stroke-width="1"/><path d="M941.537-206.288l90.32-51.7-32.515,51.7,32.515,52.526Z" transform="translate(-851.295 310.057)" fill="none" stroke="#fff" stroke-linejoin="round" stroke-width="1"/><path d="M941.6-206.288l-90.242,52.524,32.437-52.524-32.358-51.644Z" transform="translate(-851.357 310.057)" fill="none" stroke="#fff" stroke-linejoin="round" stroke-width="1"/><line x2="115.61" transform="translate(32.437 103.769)" fill="none" stroke="#fff" stroke-linejoin="round" stroke-width="1"/><line y2="208.301" transform="translate(90.242 0.011)" fill="none" stroke="#fff" stroke-linejoin="round" stroke-width="1"/><path d="M941.593-310.057l28.466,53.983,61.777-1.9" transform="translate(-851.295 310.057)" fill="none" stroke="#fff" stroke-linejoin="round" stroke-width="1"/><path d="M851.357-153.764,912.346-156l29.309,54.338" transform="translate(-851.357 310.057)" fill="none" stroke="#fff" stroke-linejoin="round" stroke-width="1"/><line x1="57.775" y2="100.07" transform="translate(60.989 53.983)" fill="none" stroke="#fff" stroke-linejoin="round" stroke-width="1"/><path d="M941.6-310.057l-28.466,53.983-61.777-1.9" transform="translate(-851.357 310.057)" fill="none" stroke="#fff" stroke-linejoin="round" stroke-width="1"/><path d="M1031.836-153.764,970.847-156l-29.309,54.338" transform="translate(-851.295 310.057)" fill="none" stroke="#fff" stroke-linejoin="round" stroke-width="1"/><line x2="57.775" y2="100.07" transform="translate(61.777 53.983)" fill="none" stroke="#fff" stroke-linejoin="round" stroke-width="1"/></g><path d="M670.885-153.764v-104.2l90.3-52.1,90.3,52.1v104.2l-90.3,52.1Z" transform="translate(-670.885 310.057)" fill="none" stroke="#fff" stroke-miterlimit="10" stroke-width="1"/><path d="M761.065-206.288l90.32-51.7-32.515,51.7,32.515,52.526Z" transform="translate(-670.823 310.057)" fill="none" stroke="#fff" stroke-linejoin="round" stroke-width="1"/><path d="M761.127-206.288l-90.242,52.524,32.437-52.524-32.358-51.644Z" transform="translate(-670.885 310.057)" fill="none" stroke="#fff" stroke-linejoin="round" stroke-width="1"/><line x2="115.61" transform="translate(32.437 103.769)" fill="none" stroke="#fff" stroke-linejoin="round" stroke-width="1"/><line y2="208.301" transform="translate(90.242 0.011)" fill="none" stroke="#fff" stroke-linejoin="round" stroke-width="1"/><path d="M761.121-310.057l28.466,53.983,61.777-1.9" transform="translate(-670.823 310.057)" fill="none" stroke="#fff" stroke-linejoin="round" stroke-width="1"/><path d="M670.885-153.764,731.874-156l29.309,54.338" transform="translate(-670.885 310.057)" fill="none" stroke="#fff" stroke-linejoin="round" stroke-width="1"/><line x1="57.775" y2="100.07" transform="translate(60.989 53.983)" fill="none" stroke="#fff" stroke-linejoin="round" stroke-width="1"/><path d="M761.128-310.057l-28.466,53.983-61.777-1.9" transform="translate(-670.885 310.057)" fill="none" stroke="#fff" stroke-linejoin="round" stroke-width="1"/><path d="M851.364-153.764,790.375-156l-29.309,54.338" transform="translate(-670.823 310.057)" fill="none" stroke="#fff" stroke-linejoin="round" stroke-width="1"/><line x2="57.775" y2="100.07" transform="translate(61.777 53.983)" fill="none" stroke="#fff" stroke-linejoin="round" stroke-width="1"/><g transform="translate(360.517 157.423)"><g transform="translate(270.893)"><path d="M1301.863-100.537V3.659l90.3,52.1,90.3-52.1v-104.2l-90.3-52.1Z" transform="translate(-1301.863 152.634)" fill="none" stroke="#fff" stroke-miterlimit="10" stroke-width="1"/><path d="M1392.042-48.013l90.32,51.7-32.515-51.7,32.515-52.526Z" transform="translate(-1301.8 152.634)" fill="none" stroke="#fff" stroke-linejoin="round" stroke-width="1"/><path d="M1392.1-48.013l-90.242-52.524L1334.3-48.013,1301.941,3.631Z" transform="translate(-1301.863 152.634)" fill="none" stroke="#fff" stroke-linejoin="round" stroke-width="1"/><line x2="115.61" transform="translate(32.437 104.621)" fill="none" stroke="#fff" stroke-linejoin="round" stroke-width="1"/><line y1="208.301" transform="translate(90.242 0.078)" fill="none" stroke="#fff" stroke-linejoin="round" stroke-width="1"/><path d="M1392.1,55.756l28.466-53.983,61.777,1.9" transform="translate(-1301.801 152.634)" fill="none" stroke="#fff" stroke-linejoin="round" stroke-width="1"/><path d="M1301.863-100.537l60.989,2.24,29.309-54.338" transform="translate(-1301.863 152.634)" fill="none" stroke="#fff" stroke-linejoin="round" stroke-width="1"/><line x1="57.775" y1="100.07" transform="translate(60.989 54.338)" fill="none" stroke="#fff" stroke-linejoin="round" stroke-width="1"/><path d="M1392.105,55.756,1363.639,1.774l-61.777,1.9" transform="translate(-1301.863 152.634)" fill="none" stroke="#fff" stroke-linejoin="round" stroke-width="1"/><path d="M1482.341-100.537l-60.989,2.24-29.309-54.338" transform="translate(-1301.8 152.634)" fill="none" stroke="#fff" stroke-linejoin="round" stroke-width="1"/><line y1="100.07" x2="57.775" transform="translate(61.777 54.338)" fill="none" stroke="#fff" stroke-linejoin="round" stroke-width="1"/></g><g transform="translate(90.298)"><path d="M1121.391-100.537V3.659l90.3,52.1,90.3-52.1v-104.2l-90.3-52.1Z" transform="translate(-1121.391 152.634)" fill="none" stroke="#fff" stroke-miterlimit="10" stroke-width="1"/><path d="M1211.571-48.013l90.32,51.7-32.515-51.7,32.515-52.526Z" transform="translate(-1121.329 152.634)" fill="none" stroke="#fff" stroke-linejoin="round" stroke-width="1"/><path d="M1211.633-48.013l-90.242-52.524,32.437,52.524L1121.47,3.631Z" transform="translate(-1121.391 152.634)" fill="none" stroke="#fff" stroke-linejoin="round" stroke-width="1"/><line x2="115.61" transform="translate(32.437 104.621)" fill="none" stroke="#fff" stroke-linejoin="round" stroke-width="1"/><line y1="208.301" transform="translate(90.242 0.078)" fill="none" stroke="#fff" stroke-linejoin="round" stroke-width="1"/><path d="M1211.627,55.756l28.466-53.983,61.777,1.9" transform="translate(-1121.329 152.634)" fill="none" stroke="#fff" stroke-linejoin="round" stroke-width="1"/><path d="M1121.391-100.537l60.989,2.24,29.309-54.338" transform="translate(-1121.391 152.634)" fill="none" stroke="#fff" stroke-linejoin="round" stroke-width="1"/><line x1="57.775" y1="100.07" transform="translate(60.989 54.338)" fill="none" stroke="#fff" stroke-linejoin="round" stroke-width="1"/><path d="M1211.634,55.756,1183.168,1.774l-61.777,1.9" transform="translate(-1121.391 152.634)" fill="none" stroke="#fff" stroke-linejoin="round" stroke-width="1"/><path d="M1301.87-100.537l-60.989,2.24-29.309-54.338" transform="translate(-1121.329 152.634)" fill="none" stroke="#fff" stroke-linejoin="round" stroke-width="1"/><line y1="100.07" x2="57.775" transform="translate(61.777 54.338)" fill="none" stroke="#fff" stroke-linejoin="round" stroke-width="1"/></g><g transform="translate(0 156.325)"><g transform="translate(180.596)"><path d="M1211.627,55.788v104.2l90.3,52.1,90.3-52.1V55.788l-90.3-52.1Z" transform="translate(-1211.627 -3.69)" fill="none" stroke="#fff" stroke-miterlimit="10" stroke-width="1"/><path d="M1301.807,108.312l90.32,51.7-32.515-51.7,32.515-52.526Z" transform="translate(-1211.565 -3.69)" fill="none" stroke="#fff" stroke-linejoin="round" stroke-width="1"/><path d="M1301.869,108.312l-90.242-52.524,32.437,52.524-32.358,51.644Z" transform="translate(-1211.627 -3.69)" fill="none" stroke="#fff" stroke-linejoin="round" stroke-width="1"/><line x2="115.61" transform="translate(32.437 104.621)" fill="none" stroke="#fff" stroke-linejoin="round" stroke-width="1"/><line y1="208.301" transform="translate(90.242 0.078)" fill="none" stroke="#fff" stroke-linejoin="round" stroke-width="1"/><path d="M1301.863,212.081l28.466-53.983,61.777,1.9" transform="translate(-1211.565 -3.69)" fill="none" stroke="#fff" stroke-linejoin="round" stroke-width="1"/><path d="M1211.627,55.788l60.989,2.24L1301.925,3.69" transform="translate(-1211.627 -3.69)" fill="none" stroke="#fff" stroke-linejoin="round" stroke-width="1"/><line x1="57.775" y1="100.07" transform="translate(60.989 54.338)" fill="none" stroke="#fff" stroke-linejoin="round" stroke-width="1"/><path d="M1301.87,212.081,1273.4,158.1l-61.777,1.9" transform="translate(-1211.627 -3.69)" fill="none" stroke="#fff" stroke-linejoin="round" stroke-width="1"/><path d="M1392.105,55.788l-60.989,2.24L1301.807,3.69" transform="translate(-1211.565 -3.69)" fill="none" stroke="#fff" stroke-linejoin="round" stroke-width="1"/><line y1="100.07" x2="57.775" transform="translate(61.777 54.338)" fill="none" stroke="#fff" stroke-linejoin="round" stroke-width="1"/></g><path d="M1031.155,55.788v104.2l90.3,52.1,90.3-52.1V55.788l-90.3-52.1Z" transform="translate(-1031.155 -3.69)" fill="none" stroke="#fff" stroke-miterlimit="10" stroke-width="1"/><path d="M1121.335,108.312l90.321,51.7-32.515-51.7,32.515-52.526Z" transform="translate(-1031.093 -3.69)" fill="none" stroke="#fff" stroke-linejoin="round" stroke-width="1"/><path d="M1121.4,108.312l-90.242-52.524,32.437,52.524-32.358,51.644Z" transform="translate(-1031.155 -3.69)" fill="none" stroke="#fff" stroke-linejoin="round" stroke-width="1"/><line x2="115.61" transform="translate(32.437 104.621)" fill="none" stroke="#fff" stroke-linejoin="round" stroke-width="1"/><line y1="208.301" transform="translate(90.242 0.078)" fill="none" stroke="#fff" stroke-linejoin="round" stroke-width="1"/><path d="M1121.391,212.081l28.466-53.983,61.777,1.9" transform="translate(-1031.093 -3.69)" fill="none" stroke="#fff" stroke-linejoin="round" stroke-width="1"/><path d="M1031.155,55.788l60.989,2.24L1121.453,3.69" transform="translate(-1031.155 -3.69)" fill="none" stroke="#fff" stroke-linejoin="round" stroke-width="1"/><line x1="57.775" y1="100.07" transform="translate(60.989 54.338)" fill="none" stroke="#fff" stroke-linejoin="round" stroke-width="1"/><path d="M1121.4,212.081,1092.932,158.1l-61.777,1.9" transform="translate(-1031.155 -3.69)" fill="none" stroke="#fff" stroke-linejoin="round" stroke-width="1"/><path d="M1211.634,55.788l-60.989,2.24L1121.336,3.69" transform="translate(-1031.093 -3.69)" fill="none" stroke="#fff" stroke-linejoin="round" stroke-width="1"/><line y1="100.07" x2="57.775" transform="translate(61.777 54.338)" fill="none" stroke="#fff" stroke-linejoin="round" stroke-width="1"/></g></g></g><g transform="translate(180.596 156.325)"><path d="M761.094-310.029v-104.2l90.3-52.1,90.3,52.1v104.2l-90.3,52.1Z" transform="translate(-761.094 466.322)" fill="none" stroke="#fff" stroke-miterlimit="10" stroke-width="1"/><path d="M851.274-362.553l90.32-51.7-32.515,51.7,32.515,52.526Z" transform="translate(-761.032 466.322)" fill="none" stroke="#fff" stroke-linejoin="round" stroke-width="1"/><path d="M851.336-362.553l-90.242,52.524,32.437-52.524L761.172-414.2Z" transform="translate(-761.094 466.322)" fill="none" stroke="#fff" stroke-linejoin="round" stroke-width="1"/><line x2="115.61" transform="translate(32.437 103.769)" fill="none" stroke="#fff" stroke-linejoin="round" stroke-width="1"/><line y2="208.301" transform="translate(90.242 0.011)" fill="none" stroke="#fff" stroke-linejoin="round" stroke-width="1"/><path d="M851.329-466.322,879.8-412.339l61.777-1.9" transform="translate(-761.032 466.322)" fill="none" stroke="#fff" stroke-linejoin="round" stroke-width="1"/><path d="M761.094-310.029l60.989-2.24,29.309,54.338" transform="translate(-761.094 466.322)" fill="none" stroke="#fff" stroke-linejoin="round" stroke-width="1"/><line x1="57.775" y2="100.07" transform="translate(60.989 53.983)" fill="none" stroke="#fff" stroke-linejoin="round" stroke-width="1"/><path d="M851.337-466.322l-28.466,53.983-61.777-1.9" transform="translate(-761.094 466.322)" fill="none" stroke="#fff" stroke-linejoin="round" stroke-width="1"/><path d="M941.572-310.029l-60.989-2.24-29.309,54.338" transform="translate(-761.032 466.322)" fill="none" stroke="#fff" stroke-linejoin="round" stroke-width="1"/><line x2="57.775" y2="100.07" transform="translate(61.777 53.983)" fill="none" stroke="#fff" stroke-linejoin="round" stroke-width="1"/></g><g transform="translate(0 156.325)"><path d="M580.622-310.029v-104.2l90.3-52.1,90.3,52.1v104.2l-90.3,52.1Z" transform="translate(-580.622 466.322)" fill="none" stroke="#fff" stroke-miterlimit="10" stroke-width="1"/><path d="M670.8-362.553l90.32-51.7-32.515,51.7,32.515,52.526Z" transform="translate(-580.56 466.322)" fill="none" stroke="#fff" stroke-linejoin="round" stroke-width="1"/><path d="M670.864-362.553l-90.242,52.524,32.437-52.524L580.7-414.2Z" transform="translate(-580.622 466.322)" fill="none" stroke="#fff" stroke-linejoin="round" stroke-width="1"/><line x2="115.61" transform="translate(32.437 103.769)" fill="none" stroke="#fff" stroke-linejoin="round" stroke-width="1"/><line y2="208.301" transform="translate(90.242 0.011)" fill="none" stroke="#fff" stroke-linejoin="round" stroke-width="1"/><path d="M670.858-466.322l28.466,53.983,61.777-1.9" transform="translate(-580.56 466.322)" fill="none" stroke="#fff" stroke-linejoin="round" stroke-width="1"/><path d="M580.622-310.029l60.989-2.24,29.309,54.338" transform="translate(-580.622 466.322)" fill="none" stroke="#fff" stroke-linejoin="round" stroke-width="1"/><line x1="57.775" y2="100.07" transform="translate(60.989 53.983)" fill="none" stroke="#fff" stroke-linejoin="round" stroke-width="1"/><path d="M670.865-466.322,642.4-412.339l-61.777-1.9" transform="translate(-580.622 466.322)" fill="none" stroke="#fff" stroke-linejoin="round" stroke-width="1"/><path d="M761.1-310.029l-60.989-2.24L670.8-257.931" transform="translate(-580.56 466.322)" fill="none" stroke="#fff" stroke-linejoin="round" stroke-width="1"/><line x2="57.775" y2="100.07" transform="translate(61.777 53.983)" fill="none" stroke="#fff" stroke-linejoin="round" stroke-width="1"/></g><g transform="translate(90.243)"><path d="M670.8-466.353v-104.2l90.3-52.1,90.3,52.1v104.2l-90.3,52.1Z" transform="translate(-670.803 622.646)" fill="none" stroke="#fff" stroke-miterlimit="10" stroke-width="1"/><path d="M760.983-518.877l90.32-51.7-32.515,51.7L851.3-466.352Z" transform="translate(-670.741 622.646)" fill="none" stroke="#fff" stroke-linejoin="round" stroke-width="1"/><path d="M761.045-518.877,670.8-466.353l32.437-52.524-32.358-51.644Z" transform="translate(-670.803 622.646)" fill="none" stroke="#fff" stroke-linejoin="round" stroke-width="1"/><line x2="115.61" transform="translate(32.437 103.769)" fill="none" stroke="#fff" stroke-linejoin="round" stroke-width="1"/><line y2="208.301" transform="translate(90.242 0.011)" fill="none" stroke="#fff" stroke-linejoin="round" stroke-width="1"/><path d="M761.039-622.646,789.5-568.664l61.777-1.9" transform="translate(-670.741 622.646)" fill="none" stroke="#fff" stroke-linejoin="round" stroke-width="1"/><path d="M670.8-466.353l60.989-2.24L761.1-414.256" transform="translate(-670.803 622.646)" fill="none" stroke="#fff" stroke-linejoin="round" stroke-width="1"/><line x1="57.775" y2="100.07" transform="translate(60.989 53.983)" fill="none" stroke="#fff" stroke-linejoin="round" stroke-width="1"/><path d="M761.046-622.646,732.58-568.664l-61.777-1.9" transform="translate(-670.803 622.646)" fill="none" stroke="#fff" stroke-linejoin="round" stroke-width="1"/><path d="M851.282-466.353l-60.989-2.24-29.309,54.338" transform="translate(-670.741 622.646)" fill="none" stroke="#fff" stroke-linejoin="round" stroke-width="1"/><line x2="57.775" y2="100.07" transform="translate(61.777 53.983)" fill="none" stroke="#fff" stroke-linejoin="round" stroke-width="1"/></g></g></g></g></svg>